<?xml version="1.0" encoding="UTF-8"?>
<svg id="Layer_1" data-name="Layer 1" xmlns="http://www.w3.org/2000/svg" viewBox="0 0 1584.61 437.97">
  <defs>
    <style>
      .cls-1 {
        fill: #f2ede8;
        stroke-width: 0px;
      }
    </style>
  </defs>
  <path class="cls-1" d="M1547.55,0H37.06C16.59,0,0,17.62,0,39.36v359.26c0,21.74,16.59,39.36,37.06,39.36h1510.48c20.47,0,37.06-17.62,37.06-39.36V39.36c0-21.74-16.59-39.36-37.06-39.36ZM1552.02,365.35c0,21.74-16.59,39.36-37.06,39.36H69.64c-20.47,0-37.06-17.62-37.06-39.36V72.62c0-21.74,16.59-39.36,37.06-39.36h1445.32c20.47,0,37.06,17.62,37.06,39.36v292.73Z"/>
  <g>
    <path class="cls-1" d="M1317.36,249.33c-4.23-5.81-9.4-8.72-15.53-8.72s-10.84,3.06-15.07,9.18c-4.28,6.12-6.41,13.61-6.41,22.46s2.01,16.54,6.03,22.77c4.53,6.95,10.07,10.42,16.61,10.42,2.78,0,5.49-.77,8.11-2.32,2.63-1.54,4.89-3.7,6.8-6.48,2.01-2.88,3.63-6.5,4.87-10.84,1.24-4.35,1.85-8.55,1.85-12.62s-.66-8.48-1.97-12.77c-1.31-4.3-3.08-7.99-5.29-11.08Z"/>
    <path class="cls-1" d="M552.1,278.47c-1.44,1.03-2.75,2.27-3.93,3.71-2.41,2.99-3.62,6.46-3.62,10.43,0,3.4.94,6.21,2.81,8.42s4.25,3.32,7.12,3.32c2.52,0,4.89-.79,7.12-2.36,2.23-1.57,3.92-3.67,5.05-6.3,1.59-3.45,2.39-8.45,2.39-14.99v-12.9c-2.77,2.32-5.83,4.35-9.17,6.1-3.75,2.01-6.34,3.53-7.78,4.56Z"/>
    <path class="cls-1" d="M1235.46,249.33c-4.23-5.81-9.4-8.72-15.53-8.72s-10.84,3.06-15.07,9.18c-4.28,6.12-6.41,13.61-6.41,22.46s2.01,16.54,6.03,22.77c4.53,6.95,10.07,10.42,16.61,10.42,2.78,0,5.49-.77,8.11-2.32,2.63-1.54,4.89-3.7,6.8-6.48,2.01-2.88,3.63-6.5,4.87-10.84,1.24-4.35,1.85-8.55,1.85-12.62s-.66-8.48-1.97-12.77c-1.31-4.3-3.08-7.99-5.29-11.08Z"/>
    <path class="cls-1" d="M986.78,240.62c-3.7,0-6.68,1.85-8.94,5.55-1.13,1.85-2.03,4.11-2.7,6.79-.67,2.67-1,5.35-1,8.02,0,5.55,1.17,10.08,3.5,13.57,2.34,3.5,5.33,5.24,8.97,5.24s6.57-1.74,8.63-5.21c2.05-3.47,3.08-8.29,3.08-14.46s-1.34-11.46-4-15.27c-1.95-2.83-4.47-4.24-7.55-4.24Z"/>
    <path class="cls-1" d="M809.99,249.04c-3.85-5.25-8.54-7.88-14.08-7.88-2.72,0-5.29.67-7.7,2.01-2.41,1.34-4.34,3.17-5.77,5.48-1.59,2.47-2.69,5.55-3.31,9.23-.61,3.68-.92,8.92-.92,15.72s.31,12.47.92,16.07c.62,3.61,1.72,6.52,3.31,8.73,1.44,1.96,3.32,3.53,5.66,4.71,2.33,1.19,4.71,1.78,7.12,1.78,5.44,0,10.18-2.57,14.24-7.73,2.46-3.09,4.36-6.75,5.7-10.97,1.33-4.22,2-8.63,2-13.21s-.63-8.77-1.89-13.02c-1.26-4.25-3.01-7.89-5.27-10.93Z"/>
    <path class="cls-1" d="M726.36,249.33c-4.23-5.81-9.4-8.72-15.53-8.72s-10.84,3.06-15.07,9.18c-4.28,6.12-6.41,13.61-6.41,22.46s2.01,16.54,6.03,22.77c4.53,6.95,10.07,10.42,16.61,10.42,2.78,0,5.49-.77,8.11-2.32,2.63-1.54,4.89-3.7,6.8-6.48,2.01-2.88,3.63-6.5,4.87-10.84,1.24-4.35,1.85-8.55,1.85-12.62s-.66-8.48-1.97-12.77c-1.31-4.3-3.08-7.99-5.29-11.08Z"/>
    <path class="cls-1" d="M320.19,166.12c-5.3,0-1.99-1.32-8.61-6.62-6.62-5.3-7.28-5.96-15.75-5.96s-10.74,2.65-16.7,6.62c-5.96,3.97-5.3,7.95-8.61,8.61-3.31.66-1.32.66-5.96-1.99s-2.65-7.28-18.54-9.27c-15.89-1.99-12.58.66-22.52,3.31-9.93,2.65-7.28.66-15.89,3.31-8.61,2.65-5.3,3.97-17.22,11.26-11.92,7.28-17.22,8.61-21.19,19.21-3.97,10.6-5.3,10.6-5.3,10.6,0,0-12.58,15.23-12.58,16.56s1.32,0,1.32,1.32-1.32,1.32-3.31,4.64c-1.99,3.31-2.65,11.26-2.65,13.25s-2.65,3.97-4.64,4.64c-1.99.66-7.28,9.27-7.95,10.6-.66,1.32.66,3.97,2.65,3.97s3.97-1.32,5.96-3.31,5.3-5.3,7.28-4.64c1.99.66,2.65-.66,4.64-2.19,1.99-1.53,1.99-3.77,3.31-5.76,1.32-1.99,1.99-1.32,6.62-2.65s6.62-4.64,7.95-3.31,0,3.97,0,6.62-4.64,2.65-8.61,3.97c-3.97,1.32-7.95,6.62-8.61,7.28-.66.66-.66,2.65-.66,4.64s2.65,3.31,3.97,4.64c1.32,1.32,1.99,1.99,5.96,1.32,3.97-.66,6.62-4.64,9.93-5.96,3.31-1.32,11.26,0,13.25,3.31s0,15.89.66,17.88c.66,1.99,3.97,1.32,5.3,1.32s1.99-1.32,3.31-2.65,3.31-1.32,4.64-.66c1.32.66.66.66,2.65,1.32,1.99.66,1.99-.66,1.99-.66,0,0,1.32-1.99,3.31-3.31s3.97,0,4.64-.66c.66-.66.66-1.99.66-2.65s1.32-.66-7.95-3.31-11.26-6.62-11.26-6.62c0,0,19.21.66,29.8-2.65s13.91-9.93,17.28-12.58c3.38-2.65,13.18-5.96,19.14-5.96s13.25,1.99,20.53,5.3c7.28,3.31,13.91,9.27,14.57,11.26.66,1.99,0,3.31,0,4.64s.66,2.65,3.97,1.32c3.31-1.32,0-3.97,3.97-3.97h11.92s2.65-3.31,4.64-5.3c1.99-1.99,9.27-5.3,9.27-6.62s0-1.99-1.99-2.65c-1.99-.66-11.92,4.64-17.88,5.96-5.96,1.32-5.3,1.32-19.87-5.96-14.57-7.28-15.23-15.89-15.23-15.89v-18.54s7.28.66,16.56-7.95c9.27-8.61,5.3-29.8,5.3-30.46s0-1.99,2.65-1.32c2.65.66,8.61,4.64,14.57,8.61,5.96,3.97,15.89,6.62,17.22,7.28,1.32.66,1.32,0,1.99-.66.66-.66-.66-1.32-.66-3.31s.66-1.32,1.32-3.31c.66-1.99.66-3.97,0-5.96-.66-1.99-2.65-2.65-3.31-3.97-.66-1.32,1.99-3.31,4.64-1.99,2.65,1.32,1.32,1.32,4.64,6.62,3.31,5.3,7.95,6.62,9.27,8.61,1.32,1.99-.66,5.96,1.99,5.3,2.65-.66,3.31-1.32,9.27-1.32s7.28.66,11.26.66,7.28-4.64,2.65-5.3c-4.64-.66-7.28,1.32-11.92-3.31s-3.31-7.95-7.28-11.26-3.31-4.64-15.23-5.96c-11.92-1.32-15.23,2.65-20.53,2.65Z"/>
    <path class="cls-1" d="M582.94,144.19c-1.01-1.84-2.35-3.29-4.03-4.36-1.68-1.07-3.47-1.6-5.38-1.6-3.21,0-6.02,1.39-8.43,4.16-2.41,2.78-3.84,6.27-4.29,10.47h24.2c-.26-3.75-.95-6.64-2.07-8.67Z"/>
    <path class="cls-1" d="M1477.85,52.68H106.75c-20.6,0-37.29,16.7-37.29,37.29v258.21c0,20.6,16.7,37.29,37.29,37.29h1371.1c20.6,0,37.29-16.7,37.29-37.29V89.98c0-20.6-16.7-37.29-37.29-37.29ZM849.46,199.55c1.35-1.31,3-1.97,4.97-1.97s3.63.66,4.97,1.97c1.35,1.31,2.02,2.92,2.02,4.83s-.66,3.58-1.98,4.87c-1.32,1.29-2.99,1.93-5.01,1.93s-3.69-.64-5.01-1.93c-1.32-1.29-1.98-2.91-1.98-4.87s.67-3.52,2.02-4.83ZM559.51,142.22c4.39-3.49,9.4-5.23,15.03-5.23,3,0,5.78.53,8.33,1.6,2.55,1.07,4.71,2.62,6.47,4.64,2.74,3.15,4.11,7.09,4.11,11.82h-32.98c-.15,1.84-.22,3.17-.22,4,0,3.26.48,6.45,1.43,9.57.95,3.12,2.25,5.7,3.9,7.77,1.68,2.1,3.77,3.75,6.26,4.95,2.49,1.2,5.09,1.8,7.83,1.8,2.02,0,3.94-.34,5.75-1.01,1.81-.68,3.32-1.61,4.52-2.81,1.35-1.31,2.51-3.41,3.48-6.3l1.18.39c-.98,4.39-3.07,7.7-6.28,9.93-3.21,2.23-7.48,3.35-12.81,3.35-4.62,0-8.57-.73-11.88-2.2-3.3-1.46-6.1-3.71-8.39-6.75-3.19-4.24-4.78-9.46-4.78-15.65,0-8.44,3.02-15.06,9.06-19.87ZM488.14,184.49c2.25-.3,3.86-.72,4.84-1.26.98-.54,1.76-1.47,2.36-2.78.41-.86.7-2.16.87-3.91.17-1.74.25-4.26.25-7.56v-44.12c0-3.82-.09-6.52-.28-8.09-.19-1.57-.6-2.85-1.24-3.82-.64-1.05-1.41-1.8-2.31-2.25-.9-.45-2.19-.73-3.88-.84v-1.24l16.21-2.03v38.55c1.31-1.61,2.48-2.87,3.49-3.77,1.01-.9,2.23-1.69,3.66-2.36,2.74-1.35,5.85-2.02,9.34-2.02,4.43,0,8.08.88,10.97,2.64,2.06,1.31,3.48,2.91,4.25,4.81.77,1.89,1.15,4.73,1.15,8.52v16.42l.06,4.27c0,2.55.15,4.41.45,5.59.3,1.18.88,2.17,1.75,2.95,1.05,1.01,2.98,1.78,5.8,2.31v1.18h-24.86v-1.18c1.98-.26,3.4-.58,4.24-.95.84-.37,1.6-1.01,2.28-1.91.67-.94,1.14-2.21,1.4-3.82s.39-3.99.39-7.14v-17.82c0-2.7-.21-4.83-.62-6.41s-1.11-2.94-2.08-4.1c-1.91-2.21-4.6-3.32-8.09-3.32-9.06,0-13.59,7.16-13.59,21.47v8.99l.06,4.16c0,2.55.15,4.41.45,5.59s.88,2.16,1.74,2.95c1.05,1.01,2.98,1.78,5.78,2.31v1.18h-24.86v-1.18ZM255.67,360.29c-78.31,0-141.8-63.49-141.8-141.8s63.49-141.8,141.8-141.8,141.8,63.49,141.8,141.8-63.49,141.8-141.8,141.8ZM409.23,129.73l-1.29-.11,1.01-20.77h76.15l1.01,20.77-1.29.11c-1.01-5.22-2.6-9.16-4.76-11.85-2.16-2.68-5.3-4.61-9.43-5.77-3.49-1.01-9.4-1.52-17.73-1.52v57.41c0,3.83.22,6.67.65,8.53.43,1.86,1.23,3.39,2.39,4.59,1.05,1.09,2.24,1.88,3.57,2.36,1.33.49,3.07.79,5.21.9v1.29h-35.97v-1.29c2.18-.11,3.93-.41,5.26-.9,1.33-.49,2.52-1.27,3.57-2.36,1.16-1.2,1.96-2.72,2.39-4.56.43-1.84.65-4.69.65-8.55v-57.41c-2.36,0-4.9.08-7.6.23-5.78.3-10.09,1.03-12.92,2.19-2.83,1.16-5.17,3.17-7.01,6.02-1.69,2.63-2.98,6.19-3.88,10.69ZM525.39,267.89c-4.53.41-7.71,1.04-9.54,1.89-1.83.85-3.18,2.31-4.06,4.37-.98,2.27-1.47,6.77-1.47,13.52,0,1.85.1,4.74.31,8.65l.15,1.78c-1.96-.72-3.4-1.08-4.33-1.08-1.13,0-2.58.59-4.33,1.78-4.48,3.09-9.68,5.46-15.61,7.11-5.92,1.65-12.18,2.47-18.78,2.47-9.07,0-17.24-1.55-24.53-4.64-7.29-3.09-13.2-7.52-17.73-13.29-3.4-4.33-6.01-9.48-7.84-15.45-1.83-5.97-2.74-12.31-2.74-19.01,0-9.22,1.65-17.8,4.95-25.73,3.3-7.93,7.93-14.47,13.91-19.63,4.89-4.17,10.53-7.39,16.92-9.66,6.39-2.27,13.14-3.4,20.24-3.4,4.12,0,7.94.39,11.47,1.16,3.53.77,7.28,2.04,11.24,3.79l4.56,2.09c1.13.46,2.16.7,3.09.7,2.06,0,3.63-1.67,4.71-5.02h2.01l.93,33.61-1.78.15c-3.55-11.44-8.11-19.95-13.68-25.54-5.56-5.59-12.28-8.38-20.17-8.38-6.13,0-11.4,1.25-15.8,3.75-4.4,2.5-8.51,6.56-12.32,12.17-7.73,11.49-11.59,24.62-11.59,39.41,0,7.06.93,13.72,2.78,19.97,1.85,6.26,4.56,11.78,8.11,16.57,6.9,9.27,15.32,13.91,25.27,13.91,3.91,0,7.6-.82,11.05-2.47,3.45-1.65,6.28-3.91,8.5-6.8,3.04-4.02,4.56-8.78,4.56-14.29,0-5.1-1.38-8.78-4.13-11.05-2.76-2.27-7.3-3.4-13.64-3.4v-1.78h49.29v1.78ZM583.19,307.14c-3.66,0-6.71-.9-9.13-2.7-1.6-1.18-3.25-3.24-4.95-6.18-3.46,3.09-6.06,5.13-7.82,6.1-3.35,1.85-7.25,2.78-11.68,2.78-5.67,0-10.18-1.37-13.5-4.09-3.33-2.73-4.99-6.41-4.99-11.05,0-4.28,1.36-7.86,4.09-10.74,1.55-1.6,3.32-2.87,5.33-3.82,2.01-.95,4.92-1.92,8.73-2.9,4.48-1.13,7.79-2.09,9.93-2.86,2.14-.77,3.93-1.7,5.37-2.78,1.65-1.18,2.78-2.57,3.4-4.17.62-1.6.93-3.81.93-6.64,0-6.03-1.13-10.43-3.4-13.21-1.03-1.29-2.36-2.32-3.98-3.09-1.62-.77-3.31-1.16-5.06-1.16-2.11,0-3.99.54-5.64,1.62s-2.88,2.58-3.71,4.48l-1.93,4.48c-1.03,2.42-2.89,3.63-5.56,3.63-1.75,0-3.22-.58-4.4-1.74s-1.78-2.61-1.78-4.37c0-2.63,1.86-4.84,5.57-6.64,2.01-.93,4.5-1.69,7.47-2.28,2.97-.59,5.87-.89,8.71-.89,3.2,0,6.53.41,9.98,1.24,3.46.82,6.35,1.88,8.67,3.17,3.35,1.91,5.44,4.38,6.27,7.42.41,1.55.62,4.15.62,7.8v28.59c0,4.84.2,8.14.62,9.89.88,3.66,2.99,5.49,6.34,5.49,1.6,0,2.85-.28,3.75-.85.9-.57,1.97-1.7,3.21-3.4l1.31.77c-1.85,5.41-6.1,8.11-12.75,8.11ZM630.16,305.75h-34.15v-1.62c3.09-.41,5.3-.99,6.64-1.74,1.34-.75,2.42-2.02,3.24-3.82.57-1.18.97-2.97,1.2-5.36.23-2.39.35-5.85.35-10.38v-60.56c0-5.25-.13-8.95-.39-11.11-.26-2.16-.82-3.91-1.7-5.25-.88-1.44-1.93-2.47-3.17-3.09-1.24-.62-3.01-1-5.33-1.16v-1.7l22.25-2.78v86.17l.08,5.87c0,3.5.2,6.06.62,7.68.41,1.62,1.21,2.97,2.4,4.05,1.44,1.39,4.1,2.45,7.96,3.17v1.62ZM668.49,305.75h-34.15v-1.62c3.09-.41,5.3-.99,6.64-1.74,1.34-.75,2.42-2.02,3.24-3.82.57-1.18.97-2.97,1.2-5.36.23-2.39.35-5.85.35-10.38v-60.56c0-5.25-.13-8.95-.39-11.11-.26-2.16-.82-3.91-1.7-5.25-.88-1.44-1.93-2.47-3.17-3.09-1.24-.62-3.01-1-5.33-1.16v-1.7l22.25-2.78v86.17l.08,5.87c0,3.5.2,6.06.62,7.68.41,1.62,1.21,2.97,2.4,4.05,1.44,1.39,4.1,2.45,7.96,3.17v1.62ZM738.88,295.24c-7.21,7.93-16.33,11.9-27.35,11.9s-20.17-3.97-27.43-11.9c-2.83-3.09-5.01-6.54-6.53-10.35-1.52-3.81-2.28-7.73-2.28-11.74,0-8.34,3.09-15.79,9.27-22.33,7.52-7.93,16.51-11.9,26.97-11.9s19.42,3.97,26.89,11.9c6.18,6.6,9.27,14.06,9.27,22.41s-2.94,15.58-8.81,22.02ZM827.54,287.67c-2.03,4.84-4.92,8.83-8.68,11.98-5.86,5-12.83,7.49-20.91,7.49-3.86,0-7.19-.57-9.99-1.7-2.8-1.13-6.06-3.19-9.76-6.18l.08,14.18v5.32c0,3.49.2,6.05.62,7.67.41,1.62,1.21,2.99,2.4,4.12,1.44,1.39,4.1,2.41,7.96,3.08v1.62h-34.15v-1.62c3.09-.41,5.3-.98,6.64-1.7,1.34-.72,2.42-1.98,3.24-3.78.57-1.18.97-2.99,1.2-5.4.23-2.42.35-5.87.35-10.34v-53.34c0-5.82-.92-9.96-2.74-12.43-1.83-2.47-4.91-3.71-9.23-3.71v-1.93l22.56-3.17c.57,2.47.85,4.74.85,6.8v1.47c3.8-2.57,7.38-4.42,10.72-5.52,3.34-1.11,6.97-1.66,10.88-1.66,7.82,0,14.5,2.34,20.06,7.03,3.5,2.99,6.2,6.72,8.1,11.2,1.9,4.48,2.86,9.43,2.86,14.83s-1.02,10.84-3.05,15.69ZM871.62,305.75h-34.15v-1.62c3.09-.41,5.3-.99,6.64-1.73,1.34-.74,2.42-2.01,3.24-3.81.57-1.18.97-2.96,1.2-5.34.23-2.38.35-5.83.35-10.34v-18.99c0-5.28-.13-8.98-.39-11.11-.26-2.13-.82-3.86-1.7-5.19-.88-1.43-1.93-2.47-3.17-3.11-1.24-.64-3.01-1.04-5.33-1.19v-1.62l22.25-2.78v44.5l.08,5.85c0,3.49.2,6.04.62,7.66.41,1.62,1.21,2.97,2.4,4.04,1.44,1.39,4.1,2.44,7.96,3.16v1.62ZM954.52,305.75h-34.15v-1.62c3.09-.41,5.3-.99,6.64-1.74,1.34-.75,2.42-2.02,3.24-3.82.57-1.18.97-2.97,1.2-5.36s.35-5.83.35-10.3v-16.36c0-5.61-.19-9.72-.58-12.35-.39-2.62-1.12-4.73-2.2-6.33-1.18-1.8-2.88-3.2-5.09-4.2-2.21-1-4.65-1.51-7.32-1.51-2.88,0-5.57.57-8.06,1.7-2.49,1.13-4.46,2.68-5.9,4.63-1.54,2.06-2.56,4.39-3.05,6.98-.49,2.6-.73,6.91-.73,12.93v15.12l.08,5.71c0,3.5.2,6.06.62,7.68.41,1.62,1.21,2.97,2.4,4.05,1.44,1.39,4.1,2.45,7.96,3.16v1.62h-34.15v-1.62c3.09-.41,5.3-.99,6.64-1.73,1.34-.74,2.42-2.01,3.24-3.81.57-1.18.97-2.96,1.2-5.34.23-2.38.35-5.83.35-10.34v-18.99c0-5.28-.13-8.98-.39-11.11-.26-2.13-.82-3.86-1.7-5.19-.88-1.43-1.93-2.47-3.17-3.11-1.24-.64-3.01-1.04-5.33-1.19v-1.62l21.16-2.78c.73,3,1.09,5.8,1.09,8.39v1.24c6.39-6.42,13.99-9.63,22.79-9.63,6.59,0,11.9,1.54,15.92,4.63,3.97,3.04,5.95,7.36,5.95,12.97v32.72c0,3.5.21,6.06.62,7.68.41,1.62,1.21,2.97,2.4,4.05,1.44,1.39,4.09,2.45,7.96,3.16v1.62ZM1022.28,248.46c-.73.8-1.64,1.2-2.73,1.2-1.66,0-3.17-.88-4.52-2.63l-1.77-2.32c-.98-1.24-2.36-1.85-4.16-1.85-1.9,0-3.9.95-6.01,2.86,4.2,5.1,6.3,10.35,6.3,15.76,0,6.75-3,12.08-8.99,15.99-3,1.96-6.22,3.27-9.68,3.94-1.03.15-4.31.41-9.84.77-7.57.46-11.36,2.58-11.36,6.34,0,3.3,3.22,4.95,9.67,4.95h12.77c4.49,0,8.28.4,11.38,1.2,3.1.8,5.8,2.05,8.13,3.75,4.54,3.35,6.81,8.06,6.81,14.14,0,6.69-2.63,11.92-7.89,15.68-5.42,3.86-13.36,5.79-23.83,5.79-11.24,0-19.21-2.27-23.9-6.8-2.99-2.94-4.49-6.59-4.49-10.97,0-3.45,1.11-6.37,3.32-8.77,2.21-2.39,4.92-3.59,8.11-3.59,2.32,0,4.21.7,5.68,2.09,1.47,1.39,2.2,3.22,2.2,5.48v.85l-1.39.39c-.88-1.44-1.75-2.45-2.63-3.01s-1.96-.85-3.24-.85c-2.16,0-3.93.82-5.29,2.47-1.37,1.65-2.05,3.79-2.05,6.41,0,4.17,2.09,7.6,6.26,10.28,4.17,2.68,9.5,4.02,15.99,4.02,6.9,0,12.48-1.48,16.73-4.44,4.25-2.96,6.37-6.81,6.37-11.55,0-3.81-1.42-6.73-4.25-8.77-2.83-2.03-6.88-3.05-12.13-3.05h-12.28c-5.05,0-9.12-1.19-12.21-3.57-3.19-2.48-4.79-5.45-4.79-8.91,0-3.67,1.7-6.56,5.1-8.68,1.75-1.03,4.95-2.14,9.58-3.33-4.48-2.06-7.96-4.77-10.43-8.14-2.47-3.37-3.71-7.08-3.71-11.14,0-5.19,1.93-9.82,5.8-13.88,2.27-2.42,4.95-4.29,8.04-5.63,3.09-1.34,6.26-2.01,9.51-2.01,4.95,0,10,1.75,15.15,5.25,2.43-1.9,4.61-3.26,6.55-4.06,1.94-.8,4.04-1.2,6.31-1.2,2.53,0,4.57.54,6.12,1.62,1.86,1.34,2.79,2.99,2.79,4.95,0,1.19-.36,2.18-1.09,2.97ZM1178.67,267.89c-4.53.41-7.71,1.04-9.54,1.89-1.83.85-3.18,2.31-4.06,4.37-.98,2.27-1.47,6.77-1.47,13.52,0,1.85.1,4.74.31,8.65l.15,1.78c-1.96-.72-3.4-1.08-4.33-1.08-1.13,0-2.58.59-4.33,1.78-4.48,3.09-9.68,5.46-15.61,7.11-5.92,1.65-12.18,2.47-18.78,2.47-9.07,0-17.24-1.55-24.53-4.64-7.29-3.09-13.2-7.52-17.73-13.29-3.4-4.33-6.01-9.48-7.84-15.45-1.83-5.97-2.74-12.31-2.74-19.01,0-9.22,1.65-17.8,4.95-25.73,3.3-7.93,7.93-14.47,13.91-19.63,4.89-4.17,10.53-7.39,16.92-9.66,6.39-2.27,13.14-3.4,20.24-3.4,4.12,0,7.94.39,11.47,1.16,3.53.77,7.28,2.04,11.24,3.79l4.56,2.09c1.13.46,2.16.7,3.09.7,2.06,0,3.63-1.67,4.71-5.02h2.01l.93,33.61-1.78.15c-3.55-11.44-8.11-19.95-13.68-25.54-5.56-5.59-12.28-8.38-20.17-8.38-6.13,0-11.4,1.25-15.8,3.75-4.4,2.5-8.51,6.56-12.32,12.17-7.73,11.49-11.59,24.62-11.59,39.41,0,7.06.93,13.72,2.78,19.97,1.85,6.26,4.56,11.78,8.11,16.57,6.9,9.27,15.32,13.91,25.27,13.91,3.91,0,7.6-.82,11.05-2.47,3.45-1.65,6.28-3.91,8.5-6.8,3.04-4.02,4.56-8.78,4.56-14.29,0-5.1-1.38-8.78-4.13-11.05-2.76-2.27-7.3-3.4-13.64-3.4v-1.78h49.29v1.78ZM1247.98,295.24c-7.21,7.93-16.33,11.9-27.35,11.9s-20.17-3.97-27.43-11.9c-2.83-3.09-5.01-6.54-6.53-10.35-1.52-3.81-2.28-7.73-2.28-11.74,0-8.34,3.09-15.79,9.27-22.33,7.52-7.93,16.51-11.9,26.97-11.9s19.42,3.97,26.89,11.9c6.18,6.6,9.27,14.06,9.27,22.41s-2.94,15.58-8.81,22.02ZM1329.88,295.24c-7.21,7.93-16.33,11.9-27.35,11.9s-20.17-3.97-27.43-11.9c-2.83-3.09-5.01-6.54-6.53-10.35-1.52-3.81-2.28-7.73-2.28-11.74,0-8.34,3.09-15.79,9.27-22.33,7.52-7.93,16.51-11.9,26.97-11.9s19.42,3.97,26.89,11.9c6.18,6.6,9.27,14.06,9.27,22.41s-2.94,15.58-8.81,22.02ZM1387.91,300.96c-4.02,4.12-9.17,6.18-15.45,6.18-3.4,0-6.85-.67-10.35-2.01-2.27-.87-3.63-1.38-4.09-1.51-.46-.13-1.06-.19-1.78-.19-1.8,0-3.17.77-4.1,2.32h-1.24v-21.87h1.24c1.44,5.36,3.24,9.63,5.4,12.83,3.96,5.82,8.58,8.73,13.87,8.73,3.24,0,6.04-.98,8.4-2.94,2.57-2.16,3.85-5.23,3.85-9.19,0-3.25-.92-6.08-2.77-8.5-1.03-1.29-2.33-2.47-3.89-3.55s-4.2-2.6-7.9-4.56c-6.48-3.45-10.79-6.34-12.95-8.65-3.08-3.3-4.63-7.11-4.63-11.44,0-4.64,1.54-8.63,4.64-11.98,3.55-3.81,8.27-5.72,14.14-5.72,2.63,0,5.07.46,7.34,1.39l2.63,1.16c.82.31,1.55.46,2.16.46.98,0,1.91-.77,2.78-2.32h1.55l.85,17.54h-1.62c-.56-2.47-1.17-4.45-1.81-5.95-.64-1.49-1.55-2.94-2.73-4.33-1.59-1.96-3.44-3.49-5.55-4.6-2.11-1.11-4.19-1.66-6.24-1.66-2.88,0-5.33,1.04-7.36,3.13-2.03,2.09-3.04,4.65-3.04,7.69,0,2.52.91,4.8,2.74,6.84s4.64,3.9,8.44,5.6l8.17,3.71c4.88,2.22,8.53,4.97,10.95,8.27,2.41,3.3,3.62,7.19,3.62,11.67,0,5.41-1.75,9.89-5.25,13.44ZM1456.09,302.54c-4.4,3.06-10.26,4.6-17.58,4.6-6.34,0-11.77-1-16.3-3.01-4.53-2.01-8.37-5.1-11.51-9.27-4.38-5.82-6.57-12.98-6.57-21.48,0-11.59,4.15-20.68,12.44-27.28,6.03-4.79,12.9-7.19,20.63-7.19,4.12,0,7.93.73,11.44,2.2,3.5,1.47,6.46,3.59,8.89,6.37,3.76,4.33,5.64,9.73,5.64,16.23h-45.28c-.21,2.52-.31,4.35-.31,5.48,0,4.48.65,8.86,1.96,13.14,1.31,4.28,3.09,7.83,5.35,10.66,2.31,2.89,5.17,5.15,8.59,6.8,3.41,1.65,6.99,2.47,10.74,2.47,2.77,0,5.4-.46,7.89-1.39,2.49-.93,4.56-2.21,6.2-3.86,1.85-1.8,3.44-4.69,4.77-8.65l1.62.54c-1.34,6.03-4.21,10.57-8.61,13.64Z"/>
    <path class="cls-1" d="M1448.73,248.8c-1.39-2.52-3.23-4.52-5.54-5.99-2.31-1.47-4.77-2.2-7.38-2.2-4.41,0-8.27,1.91-11.58,5.72-3.31,3.81-5.27,8.6-5.88,14.37h33.23c-.36-5.15-1.31-9.12-2.85-11.9Z"/>
  </g>
</svg>