<?xml version="1.0" encoding="UTF-8"?>
<svg id="Layer_1" data-name="Layer 1" xmlns="http://www.w3.org/2000/svg" viewBox="0 0 1511.02 806.16">
  <defs>
    <style>
      .cls-1 {
        fill: #778886;
        opacity: .07;
        stroke-width: 0px;
      }
    </style>
  </defs>
  <path class="cls-1" d="M186.01,320.56s8.22,0,32.88-65.76c24.66-65.76,57.54-73.97,131.51-119.18,73.97-45.21,53.43-53.43,106.85-69.87,53.43-16.44,36.99-4.11,98.63-20.55,61.65-16.44,41.1-32.88,139.73-20.55,98.63,12.33,86.3,41.1,115.07,57.54,28.77,16.44,16.44,16.44,36.99,12.33,20.55-4.11,16.44-28.77,53.43-53.43C938.08,16.44,952.2,0,1004.73,0s56.64,4.11,97.74,36.99c41.1,32.88,20.55,41.1,53.43,41.1s53.43-24.66,127.4-16.44c73.97,8.22,69.87,16.44,94.52,36.99,24.66,20.55,16.44,41.1,45.21,69.87s45.21,16.44,73.97,20.55c28.77,4.11,8.22,32.88-16.44,32.88s-32.88-4.11-69.87-4.11c-36.99,0-41.1,4.11-57.54,8.22-16.44,4.11-4.11-20.55-12.33-32.88-8.22-12.33-36.99-20.55-57.54-53.43-20.55-32.88-12.33-32.88-28.77-41.1-16.44-8.22-32.88,4.11-28.77,12.33,4.11,8.22,16.44,12.33,20.55,24.66s4.11,24.66,0,36.99c-4.11,12.33-8.22,8.22-8.22,20.55s8.22,16.44,4.11,20.55c-4.11,4.11-4.11,8.22-12.33,4.11-8.22-4.11-69.87-20.55-106.85-45.21-36.99-24.66-73.97-49.32-90.41-53.43-16.44-4.11-16.44,4.11-16.44,8.22s24.66,135.62-32.88,189.05c-57.54,53.43-102.74,49.32-102.74,49.32v115.07s4.11,53.43,94.52,98.63c90.41,45.21,86.3,45.21,123.29,36.99,36.99-8.22,98.63-41.1,110.96-36.99,12.33,4.11,12.33,8.22,12.33,16.44s-45.21,28.77-57.54,41.1-28.77,32.88-28.77,32.88h-73.97c-24.66,0-4.11,16.44-24.66,24.66-20.55,8.22-24.66,0-24.66-8.22s4.11-16.44,0-28.77c-4.11-12.33-45.21-49.32-90.41-69.87-45.21-20.55-90.41-32.88-127.4-32.88s-97.83,20.55-118.78,36.99c-20.95,16.44-41.5,57.54-107.25,78.08s-184.94,16.44-184.94,16.44c0,0,12.33,24.66,69.87,41.1,57.54,16.44,49.32,16.44,49.32,20.55s0,12.33-4.11,16.44c-4.11,4.11-16.44-4.11-28.77,4.11-12.33,8.22-20.55,20.55-20.55,20.55,0,0,0,8.22-12.33,4.11s-8.22-4.11-16.44-8.22-20.55-4.11-28.77,4.11c-8.22,8.22-12.33,16.44-20.55,16.44s-28.77,4.11-32.88-8.22c-4.11-12.33,8.22-90.41-4.11-110.96-12.33-20.55-61.65-28.77-82.19-20.55-20.55,8.22-36.99,32.88-61.65,36.99-24.66,4.11-28.77,0-36.99-8.22-8.22-8.22-24.66-16.44-24.66-28.77s0-24.66,4.11-28.77,28.77-36.99,53.43-45.21,53.43-8.22,53.43-24.66,8.22-32.88,0-41.1c-8.22-8.22-20.55,12.33-49.32,20.55-28.77,8.22-32.88,4.11-41.1,16.44-8.22,12.33-8.22,26.22-20.55,35.71-12.33,9.49-16.44,17.71-28.77,13.6s-32.88,16.44-45.21,28.77c-12.33,12.33-24.66,20.55-36.99,20.55s-20.55-16.44-16.44-24.66c4.11-8.22,36.99-61.65,49.32-65.76,12.33-4.11,28.77-16.44,28.77-28.77s4.11-61.65,16.44-82.19,20.55-20.55,20.55-28.77-8.22,0-8.22-8.22,78.08-102.74,78.08-102.74Z"/>
</svg>