<?xml version="1.0" encoding="UTF-8"?>
<svg id="Layer_1" data-name="Layer 1" xmlns="http://www.w3.org/2000/svg" viewBox="0 0 183.99 98.16">
  <defs>
    <style>
      .cls-1 {
        fill: #f2ede8;
        stroke-width: 0px;
      }
    </style>
  </defs>
  <path class="cls-1" d="M22.65,39.03s1,0,4-8.01,7.01-9.01,16.01-14.51c9.01-5.5,6.51-6.51,13.01-8.51,6.51-2,4.5-.5,12.01-2.5,7.51-2,5-4,17.01-2.5,12.01,1.5,10.51,5,14.01,7.01s2,2,4.5,1.5,2-3.5,6.51-6.51c4.5-3,6.22-5,12.62-5s6.9.5,11.9,4.5c5,4,2.5,5,6.51,5s6.51-3,15.51-2c9.01,1,8.51,2,11.51,4.5,3,2.5,2,5,5.5,8.51,3.5,3.5,5.5,2,9.01,2.5s1,4-2,4-4-.5-8.51-.5-5,.5-7.01,1-.5-2.5-1.5-4c-1-1.5-4.5-2.5-7.01-6.51s-1.5-4-3.5-5c-2-1-4,.5-3.5,1.5.5,1,2,1.5,2.5,3,.5,1.5.5,3,0,4.5-.5,1.5-1,1-1,2.5s1,2,.5,2.5-.5,1-1.5.5-8.51-2.5-13.01-5.5c-4.5-3-9.01-6-11.01-6.51-2-.5-2,.5-2,1s3,16.51-4,23.02c-7.01,6.51-12.51,6-12.51,6v14.01s.5,6.51,11.51,12.01c11.01,5.5,10.51,5.5,15.01,4.5,4.5-1,12.01-5,13.51-4.5s1.5,1,1.5,2-5.5,3.5-7.01,5c-1.5,1.5-3.5,4-3.5,4h-9.01c-3,0-.5,2-3,3-2.5,1-3,0-3-1s.5-2,0-3.5-5.5-6-11.01-8.51-11.01-4-15.51-4-11.91,2.5-14.46,4.5-5.05,7.01-13.06,9.51-22.52,2-22.52,2c0,0,1.5,3,8.51,5,7.01,2,6,2,6,2.5s0,1.5-.5,2-2-.5-3.5.5c-1.5,1-2.5,2.5-2.5,2.5,0,0,0,1-1.5.5s-1-.5-2-1-2.5-.5-3.5.5c-1,1-1.5,2-2.5,2s-3.5.5-4-1,1-11.01-.5-13.51-7.51-3.5-10.01-2.5c-2.5,1-4.5,4-7.51,4.5s-3.5,0-4.5-1-3-2-3-3.5,0-3,.5-3.5,3.5-4.5,6.51-5.5c3-1,6.51-1,6.51-3s1-4,0-5c-1-1-2.5,1.5-6,2.5-3.5,1-4,.5-5,2s-1,3.19-2.5,4.35-2,2.16-3.5,1.66c-1.5-.5-4,2-5.5,3.5-1.5,1.5-3,2.5-4.5,2.5s-2.5-2-2-3,4.5-7.51,6-8.01,3.5-2,3.5-3.5.5-7.51,2-10.01,2.5-2.5,2.5-3.5-1,0-1-1,9.51-12.51,9.51-12.51Z"/>
</svg>