<?xml version="1.0" encoding="UTF-8"?>
<svg id="Layer_1" data-name="Layer 1" xmlns="http://www.w3.org/2000/svg" viewBox="0 0 438.29 121.14">
  <defs>
    <style>
      .cls-1 {
        fill: #778886;
        stroke-width: 0px;
      }
    </style>
  </defs>
  <path class="cls-1" d="M428.03,0H10.25C4.59,0,0,4.87,0,10.89v99.37c0,6.01,4.59,10.89,10.25,10.89h417.78c5.66,0,10.25-4.87,10.25-10.89V10.89c0-6.01-4.59-10.89-10.25-10.89ZM429.27,101.05c0,6.01-4.59,10.89-10.25,10.89H19.26c-5.66,0-10.25-4.87-10.25-10.89V20.09c0-6.01,4.59-10.89,10.25-10.89h399.76c5.66,0,10.25,4.87,10.25,10.89v80.97Z"/>
  <g>
    <path class="cls-1" d="M364.37,68.96c-1.17-1.61-2.6-2.41-4.3-2.41s-3,.85-4.17,2.54c-1.18,1.69-1.77,3.76-1.77,6.21s.56,4.58,1.67,6.3c1.25,1.92,2.79,2.88,4.59,2.88.77,0,1.52-.21,2.24-.64.73-.43,1.35-1.02,1.88-1.79.56-.8,1-1.8,1.35-3,.34-1.2.51-2.37.51-3.49s-.18-2.34-.55-3.53c-.36-1.19-.85-2.21-1.46-3.06Z"/>
    <path class="cls-1" d="M152.71,77.02c-.4.29-.76.63-1.09,1.03-.67.83-1,1.79-1,2.88,0,.94.26,1.72.78,2.33s1.18.92,1.97.92c.7,0,1.35-.22,1.97-.65.62-.43,1.08-1.02,1.4-1.74.44-.95.66-2.34.66-4.15v-3.57c-.77.64-1.61,1.2-2.54,1.69-1.04.56-1.75.98-2.15,1.26Z"/>
    <path class="cls-1" d="M341.72,68.96c-1.17-1.61-2.6-2.41-4.3-2.41s-3,.85-4.17,2.54c-1.18,1.69-1.77,3.76-1.77,6.21s.56,4.58,1.67,6.3c1.25,1.92,2.79,2.88,4.59,2.88.77,0,1.52-.21,2.24-.64.73-.43,1.35-1.02,1.88-1.79.56-.8,1-1.8,1.35-3,.34-1.2.51-2.37.51-3.49s-.18-2.34-.55-3.53c-.36-1.19-.85-2.21-1.46-3.06Z"/>
    <path class="cls-1" d="M272.93,66.55c-1.02,0-1.85.51-2.47,1.54-.31.51-.56,1.14-.75,1.88-.18.74-.28,1.48-.28,2.22,0,1.54.32,2.79.97,3.75.65.97,1.47,1.45,2.48,1.45s1.82-.48,2.39-1.44c.57-.96.85-2.29.85-4s-.37-3.17-1.11-4.22c-.54-.78-1.24-1.17-2.09-1.17Z"/>
    <path class="cls-1" d="M224.03,68.88c-1.06-1.45-2.36-2.18-3.9-2.18-.75,0-1.46.19-2.13.56-.67.37-1.2.88-1.6,1.52-.44.68-.74,1.54-.92,2.55-.17,1.02-.26,2.47-.26,4.35s.09,3.45.26,4.45c.17,1,.48,1.8.92,2.41.4.54.92.98,1.56,1.3.65.33,1.3.49,1.97.49,1.5,0,2.82-.71,3.94-2.14.68-.85,1.21-1.87,1.58-3.03.37-1.17.55-2.39.55-3.65s-.17-2.43-.52-3.6c-.35-1.18-.83-2.18-1.46-3.02Z"/>
    <path class="cls-1" d="M200.9,68.96c-1.17-1.61-2.6-2.41-4.3-2.41s-3,.85-4.17,2.54c-1.18,1.69-1.77,3.76-1.77,6.21s.56,4.58,1.67,6.3c1.25,1.92,2.79,2.88,4.59,2.88.77,0,1.52-.21,2.24-.64.73-.43,1.35-1.02,1.88-1.79.56-.8,1-1.8,1.35-3,.34-1.2.51-2.37.51-3.49s-.18-2.34-.55-3.53c-.36-1.19-.85-2.21-1.46-3.06Z"/>
    <path class="cls-1" d="M88.56,45.95c-1.47,0-.55-.37-2.38-1.83-1.83-1.47-2.01-1.65-4.36-1.65s-2.97.73-4.62,1.83c-1.65,1.1-1.47,2.2-2.38,2.38-.92.18-.37.18-1.65-.55s-.73-2.01-5.13-2.56c-4.4-.55-3.48.18-6.23.92-2.75.73-2.01.18-4.4.92-2.38.73-1.47,1.1-4.76,3.11-3.3,2.01-4.76,2.38-5.86,5.31-1.1,2.93-1.47,2.93-1.47,2.93,0,0-3.48,4.21-3.48,4.58s.37,0,.37.37-.37.37-.92,1.28c-.55.92-.73,3.11-.73,3.66s-.73,1.1-1.28,1.28c-.55.18-2.01,2.56-2.2,2.93-.18.37.18,1.1.73,1.1s1.1-.37,1.65-.92,1.47-1.47,2.01-1.28c.55.18.73-.18,1.28-.61.55-.42.55-1.04.92-1.59.37-.55.55-.37,1.83-.73s1.83-1.28,2.2-.92,0,1.1,0,1.83-1.28.73-2.38,1.1c-1.1.37-2.2,1.83-2.38,2.01-.18.18-.18.73-.18,1.28s.73.92,1.1,1.28c.37.37.55.55,1.65.37,1.1-.18,1.83-1.28,2.75-1.65.92-.37,3.11,0,3.66.92s0,4.4.18,4.95c.18.55,1.1.37,1.47.37s.55-.37.92-.73.92-.37,1.28-.18c.37.18.18.18.73.37.55.18.55-.18.55-.18,0,0,.37-.55.92-.92s1.1,0,1.28-.18c.18-.18.18-.55.18-.73s.37-.18-2.2-.92c-2.56-.73-3.11-1.83-3.11-1.83,0,0,5.31.18,8.24-.73s3.85-2.75,4.78-3.48c.93-.73,3.65-1.65,5.29-1.65s3.66.55,5.68,1.47c2.01.92,3.85,2.56,4.03,3.11.18.55,0,.92,0,1.28s.18.73,1.1.37c.92-.37,0-1.1,1.1-1.1h3.3s.73-.92,1.28-1.47c.55-.55,2.56-1.47,2.56-1.83s0-.55-.55-.73c-.55-.18-3.3,1.28-4.95,1.65-1.65.37-1.47.37-5.5-1.65-4.03-2.01-4.21-4.4-4.21-4.4v-5.13s2.01.18,4.58-2.2c2.56-2.38,1.47-8.24,1.47-8.43s0-.55.73-.37c.73.18,2.38,1.28,4.03,2.38,1.65,1.1,4.4,1.83,4.76,2.01.37.18.37,0,.55-.18.18-.18-.18-.37-.18-.92s.18-.37.37-.92c.18-.55.18-1.1,0-1.65-.18-.55-.73-.73-.92-1.1-.18-.37.55-.92,1.28-.55.73.37.37.37,1.28,1.83.92,1.47,2.2,1.83,2.56,2.38.37.55-.18,1.65.55,1.47.73-.18.92-.37,2.56-.37s2.01.18,3.11.18,2.01-1.28.73-1.47c-1.28-.18-2.01.37-3.3-.92s-.92-2.2-2.01-3.11c-1.1-.92-.92-1.28-4.21-1.65-3.3-.37-4.21.73-5.68.73Z"/>
    <path class="cls-1" d="M161.23,39.88c-.28-.51-.65-.91-1.12-1.21-.47-.3-.96-.44-1.49-.44-.89,0-1.67.38-2.33,1.15-.67.77-1.06,1.73-1.19,2.9h6.69c-.07-1.04-.26-1.84-.57-2.4Z"/>
    <path class="cls-1" d="M408.76,14.57H29.53c-5.7,0-10.32,4.62-10.32,10.32v71.42c0,5.7,4.62,10.32,10.32,10.32h379.23c5.7,0,10.32-4.62,10.32-10.32V24.89c0-5.7-4.62-10.32-10.32-10.32ZM234.95,55.19c.37-.36.83-.54,1.38-.54s1,.18,1.38.54c.37.36.56.81.56,1.34s-.18.99-.55,1.35c-.37.36-.83.53-1.39.53s-1.02-.18-1.39-.53c-.37-.36-.55-.8-.55-1.35s.19-.97.56-1.34ZM154.75,39.34c1.21-.97,2.6-1.45,4.16-1.45.83,0,1.6.15,2.3.44.71.3,1.3.72,1.79,1.28.76.87,1.14,1.96,1.14,3.27h-9.12c-.04.51-.06.88-.06,1.11,0,.9.13,1.79.4,2.65.26.86.62,1.58,1.08,2.15.47.58,1.04,1.04,1.73,1.37.69.33,1.41.5,2.16.5.56,0,1.09-.09,1.59-.28.5-.19.92-.45,1.25-.78.37-.36.69-.94.96-1.74l.33.11c-.27,1.21-.85,2.13-1.74,2.75-.89.62-2.07.93-3.54.93-1.28,0-2.37-.2-3.28-.61-.91-.4-1.69-1.03-2.32-1.87-.88-1.17-1.32-2.62-1.32-4.33,0-2.34.84-4.17,2.51-5.5ZM135.01,51.03c.62-.08,1.07-.2,1.34-.35.27-.15.49-.41.65-.77.11-.24.19-.6.24-1.08.05-.48.07-1.18.07-2.09v-12.2c0-1.06-.03-1.8-.08-2.24-.05-.44-.17-.79-.34-1.06-.18-.29-.39-.5-.64-.62-.25-.12-.61-.2-1.07-.23v-.34l4.48-.56v10.66c.36-.45.69-.79.97-1.04.28-.25.62-.47,1.01-.65.76-.37,1.62-.56,2.58-.56,1.22,0,2.24.24,3.04.73.57.36.96.81,1.18,1.33.21.52.32,1.31.32,2.36v4.54l.02,1.18c0,.71.04,1.22.12,1.55.08.33.24.6.48.82.29.28.82.49,1.6.64v.33h-6.88v-.33c.55-.07.94-.16,1.17-.26.23-.1.44-.28.63-.53.19-.26.32-.61.39-1.06s.11-1.1.11-1.98v-4.93c0-.75-.06-1.34-.17-1.77s-.31-.81-.57-1.14c-.53-.61-1.27-.92-2.24-.92-2.51,0-3.76,1.98-3.76,5.94v2.49l.02,1.15c0,.71.04,1.22.12,1.55s.24.6.48.82c.29.28.82.49,1.6.64v.33h-6.88v-.33ZM70.72,99.65c-21.66,0-39.22-17.56-39.22-39.22s17.56-39.22,39.22-39.22,39.22,17.56,39.22,39.22-17.56,39.22-39.22,39.22ZM113.19,35.88l-.36-.03.28-5.74h21.06l.28,5.74-.36.03c-.28-1.44-.72-2.53-1.32-3.28-.6-.74-1.47-1.27-2.61-1.6-.96-.28-2.6-.42-4.9-.42v15.88c0,1.06.06,1.84.18,2.36.12.51.34.94.66,1.27.29.3.62.52.99.65.37.14.85.22,1.44.25v.36h-9.95v-.36c.6-.03,1.09-.11,1.46-.25.37-.13.7-.35.99-.65.32-.33.54-.75.66-1.26.12-.51.18-1.3.18-2.37v-15.88c-.65,0-1.35.02-2.1.06-1.6.08-2.79.29-3.57.61-.78.32-1.43.88-1.94,1.67-.47.73-.82,1.71-1.07,2.96ZM145.32,74.1c-1.25.11-2.13.29-2.64.52-.51.23-.88.64-1.12,1.21-.27.63-.41,1.87-.41,3.74,0,.51.03,1.31.09,2.39l.04.49c-.54-.2-.94-.3-1.2-.3-.31,0-.71.16-1.2.49-1.24.85-2.68,1.51-4.32,1.97-1.64.46-3.37.68-5.19.68-2.51,0-4.77-.43-6.79-1.28-2.02-.85-3.65-2.08-4.9-3.68-.94-1.2-1.66-2.62-2.17-4.27-.51-1.65-.76-3.4-.76-5.26,0-2.55.46-4.92,1.37-7.12.91-2.19,2.19-4,3.85-5.43,1.35-1.15,2.91-2.04,4.68-2.67,1.77-.63,3.63-.94,5.6-.94,1.14,0,2.2.11,3.17.32.98.21,2.01.56,3.11,1.05l1.26.58c.31.13.6.19.85.19.57,0,1-.46,1.3-1.39h.56l.26,9.3-.49.04c-.98-3.16-2.24-5.52-3.78-7.06-1.54-1.55-3.4-2.32-5.58-2.32-1.7,0-3.15.35-4.37,1.04-1.22.69-2.35,1.81-3.41,3.37-2.14,3.18-3.21,6.81-3.21,10.9,0,1.95.26,3.79.77,5.52.51,1.73,1.26,3.26,2.24,4.58,1.91,2.56,4.24,3.85,6.99,3.85,1.08,0,2.1-.23,3.06-.68.95-.46,1.74-1.08,2.35-1.88.84-1.11,1.26-2.43,1.26-3.95,0-1.41-.38-2.43-1.14-3.06-.76-.63-2.02-.94-3.77-.94v-.49h13.63v.49ZM161.3,84.95c-1.01,0-1.85-.25-2.53-.75-.44-.33-.9-.9-1.37-1.71-.96.85-1.68,1.42-2.16,1.69-.93.51-2.01.77-3.23.77-1.57,0-2.81-.38-3.73-1.13-.92-.75-1.38-1.77-1.38-3.06,0-1.18.38-2.17,1.13-2.97.43-.44.92-.79,1.47-1.06.56-.26,1.36-.53,2.41-.8,1.24-.31,2.15-.58,2.75-.79.59-.21,1.09-.47,1.49-.77.46-.33.77-.71.94-1.15.17-.44.26-1.05.26-1.84,0-1.67-.31-2.89-.94-3.65-.29-.36-.65-.64-1.1-.85-.45-.21-.92-.32-1.4-.32-.58,0-1.1.15-1.56.45s-.8.71-1.03,1.24l-.53,1.24c-.29.67-.8,1-1.54,1-.48,0-.89-.16-1.22-.48s-.49-.72-.49-1.21c0-.73.51-1.34,1.54-1.84.56-.26,1.24-.47,2.07-.63.82-.16,1.62-.25,2.41-.25.88,0,1.81.11,2.76.34.96.23,1.76.52,2.4.88.93.53,1.51,1.21,1.73,2.05.11.43.17,1.15.17,2.16v7.91c0,1.34.06,2.25.17,2.74.24,1.01.83,1.52,1.75,1.52.44,0,.79-.08,1.04-.23.25-.16.54-.47.89-.94l.36.21c-.51,1.5-1.69,2.24-3.53,2.24ZM174.3,84.57h-9.45v-.45c.85-.11,1.47-.27,1.84-.48.37-.21.67-.56.9-1.06.16-.33.27-.82.33-1.48.06-.66.1-1.62.1-2.87v-16.75c0-1.45-.04-2.47-.11-3.07-.07-.6-.23-1.08-.47-1.45-.24-.4-.53-.68-.88-.85-.34-.17-.83-.28-1.47-.32v-.47l6.15-.77v23.83l.02,1.62c0,.97.06,1.68.17,2.13.11.45.33.82.66,1.12.4.38,1.13.68,2.2.88v.45ZM184.9,84.57h-9.45v-.45c.85-.11,1.47-.27,1.84-.48.37-.21.67-.56.9-1.06.16-.33.27-.82.33-1.48.06-.66.1-1.62.1-2.87v-16.75c0-1.45-.04-2.47-.11-3.07-.07-.6-.23-1.08-.47-1.45-.24-.4-.53-.68-.88-.85-.34-.17-.83-.28-1.47-.32v-.47l6.15-.77v23.83l.02,1.62c0,.97.06,1.68.17,2.13.11.45.33.82.66,1.12.4.38,1.13.68,2.2.88v.45ZM204.37,81.66c-1.99,2.19-4.52,3.29-7.57,3.29s-5.58-1.1-7.59-3.29c-.78-.85-1.39-1.81-1.81-2.86-.42-1.05-.63-2.14-.63-3.25,0-2.31.85-4.37,2.56-6.18,2.08-2.19,4.57-3.29,7.46-3.29s5.37,1.1,7.44,3.29c1.71,1.82,2.56,3.89,2.56,6.2s-.81,4.31-2.44,6.09ZM228.89,79.57c-.56,1.34-1.36,2.44-2.4,3.31-1.62,1.38-3.55,2.07-5.78,2.07-1.07,0-1.99-.16-2.76-.47-.78-.31-1.68-.88-2.7-1.71l.02,3.92v1.47c0,.97.06,1.67.17,2.12.11.45.33.83.66,1.14.4.38,1.13.67,2.2.85v.45h-9.45v-.45c.85-.11,1.47-.27,1.84-.47.37-.2.67-.55.9-1.05.16-.33.27-.83.33-1.49.06-.67.1-1.62.1-2.86v-14.75c0-1.61-.25-2.75-.76-3.44-.51-.68-1.36-1.02-2.55-1.02v-.53l6.24-.88c.16.68.24,1.31.24,1.88v.41c1.05-.71,2.04-1.22,2.97-1.53.92-.31,1.93-.46,3.01-.46,2.16,0,4.01.65,5.55,1.94.97.83,1.71,1.86,2.24,3.1.53,1.24.79,2.61.79,4.1s-.28,3-.84,4.34ZM241.08,84.57h-9.45v-.45c.85-.11,1.47-.27,1.84-.48.37-.21.67-.56.9-1.05.16-.33.27-.82.33-1.48.06-.66.1-1.61.1-2.86v-5.25c0-1.46-.04-2.48-.11-3.07-.07-.59-.23-1.07-.47-1.44-.24-.4-.53-.68-.88-.86-.34-.18-.83-.29-1.47-.33v-.45l6.15-.77v12.31l.02,1.62c0,.97.06,1.67.17,2.12.11.45.33.82.66,1.12.4.38,1.13.67,2.2.87v.45ZM264.01,84.57h-9.45v-.45c.85-.11,1.47-.27,1.84-.48.37-.21.67-.56.9-1.06.16-.33.27-.82.33-1.48s.1-1.61.1-2.85v-4.52c0-1.55-.05-2.69-.16-3.42-.11-.73-.31-1.31-.61-1.75-.33-.5-.8-.89-1.41-1.16-.61-.28-1.29-.42-2.03-.42-.8,0-1.54.16-2.23.47-.69.31-1.23.74-1.63,1.28-.43.57-.71,1.21-.84,1.93-.13.72-.2,1.91-.2,3.58v4.18l.02,1.58c0,.97.06,1.68.17,2.12.11.45.33.82.66,1.12.4.38,1.13.68,2.2.88v.45h-9.45v-.45c.85-.11,1.47-.27,1.84-.48.37-.21.67-.56.9-1.05.16-.33.27-.82.33-1.48.06-.66.1-1.61.1-2.86v-5.25c0-1.46-.04-2.48-.11-3.07-.07-.59-.23-1.07-.47-1.44-.24-.4-.53-.68-.88-.86-.34-.18-.83-.29-1.47-.33v-.45l5.85-.77c.2.83.3,1.6.3,2.32v.34c1.77-1.78,3.87-2.66,6.3-2.66,1.82,0,3.29.43,4.4,1.28,1.1.84,1.65,2.04,1.65,3.59v9.05c0,.97.06,1.68.17,2.12.11.45.33.82.66,1.12.4.38,1.13.68,2.2.88v.45ZM282.75,68.72c-.2.22-.45.33-.75.33-.46,0-.88-.24-1.25-.73l-.49-.64c-.27-.34-.65-.51-1.15-.51-.53,0-1.08.26-1.66.79,1.16,1.41,1.74,2.86,1.74,4.36,0,1.87-.83,3.34-2.49,4.42-.83.54-1.72.9-2.68,1.09-.29.04-1.19.11-2.72.21-2.09.13-3.14.71-3.14,1.75,0,.91.89,1.37,2.68,1.37h3.53c1.24,0,2.29.11,3.15.33.86.22,1.61.57,2.25,1.04,1.26.93,1.88,2.23,1.88,3.91,0,1.85-.73,3.3-2.18,4.34-1.5,1.07-3.7,1.6-6.59,1.6-3.11,0-5.31-.63-6.61-1.88-.83-.81-1.24-1.82-1.24-3.03,0-.95.31-1.76.92-2.43.61-.66,1.36-.99,2.24-.99.64,0,1.16.19,1.57.58.41.38.61.89.61,1.52v.24l-.38.11c-.24-.4-.48-.68-.73-.83s-.54-.23-.9-.23c-.6,0-1.09.23-1.46.68-.38.46-.57,1.05-.57,1.77,0,1.15.58,2.1,1.73,2.84s2.63,1.11,4.42,1.11c1.91,0,3.45-.41,4.63-1.23,1.18-.82,1.76-1.88,1.76-3.2,0-1.05-.39-1.86-1.18-2.43-.78-.56-1.9-.84-3.36-.84h-3.4c-1.4,0-2.52-.33-3.38-.99-.88-.69-1.33-1.51-1.33-2.47,0-1.01.47-1.81,1.41-2.4.48-.29,1.37-.59,2.65-.92-1.24-.57-2.2-1.32-2.88-2.25-.68-.93-1.03-1.96-1.03-3.08,0-1.44.53-2.72,1.6-3.84.63-.67,1.37-1.19,2.22-1.56.86-.37,1.73-.55,2.63-.55,1.37,0,2.77.48,4.19,1.45.67-.53,1.27-.9,1.81-1.12.54-.22,1.12-.33,1.75-.33.7,0,1.26.15,1.69.45.51.37.77.83.77,1.37,0,.33-.1.6-.3.82ZM326.01,74.1c-1.25.11-2.13.29-2.64.52-.51.23-.88.64-1.12,1.21-.27.63-.41,1.87-.41,3.74,0,.51.03,1.31.09,2.39l.04.49c-.54-.2-.94-.3-1.2-.3-.31,0-.71.16-1.2.49-1.24.85-2.68,1.51-4.32,1.97-1.64.46-3.37.68-5.19.68-2.51,0-4.77-.43-6.79-1.28-2.02-.85-3.65-2.08-4.9-3.68-.94-1.2-1.66-2.62-2.17-4.27-.51-1.65-.76-3.4-.76-5.26,0-2.55.46-4.92,1.37-7.12.91-2.19,2.19-4,3.85-5.43,1.35-1.15,2.91-2.04,4.68-2.67,1.77-.63,3.63-.94,5.6-.94,1.14,0,2.2.11,3.17.32.98.21,2.01.56,3.11,1.05l1.26.58c.31.13.6.19.85.19.57,0,1-.46,1.3-1.39h.56l.26,9.3-.49.04c-.98-3.16-2.24-5.52-3.78-7.06-1.54-1.55-3.4-2.32-5.58-2.32-1.7,0-3.15.35-4.37,1.04-1.22.69-2.35,1.81-3.41,3.37-2.14,3.18-3.21,6.81-3.21,10.9,0,1.95.26,3.79.77,5.52.51,1.73,1.26,3.26,2.24,4.58,1.91,2.56,4.24,3.85,6.99,3.85,1.08,0,2.1-.23,3.06-.68.95-.46,1.74-1.08,2.35-1.88.84-1.11,1.26-2.43,1.26-3.95,0-1.41-.38-2.43-1.14-3.06-.76-.63-2.02-.94-3.77-.94v-.49h13.63v.49ZM345.18,81.66c-1.99,2.19-4.52,3.29-7.57,3.29s-5.58-1.1-7.59-3.29c-.78-.85-1.39-1.81-1.81-2.86-.42-1.05-.63-2.14-.63-3.25,0-2.31.85-4.37,2.56-6.18,2.08-2.19,4.57-3.29,7.46-3.29s5.37,1.1,7.44,3.29c1.71,1.82,2.56,3.89,2.56,6.2s-.81,4.31-2.44,6.09ZM367.83,81.66c-1.99,2.19-4.52,3.29-7.57,3.29s-5.58-1.1-7.59-3.29c-.78-.85-1.39-1.81-1.81-2.86-.42-1.05-.63-2.14-.63-3.25,0-2.31.85-4.37,2.56-6.18,2.08-2.19,4.57-3.29,7.46-3.29s5.37,1.1,7.44,3.29c1.71,1.82,2.56,3.89,2.56,6.2s-.81,4.31-2.44,6.09ZM383.88,83.24c-1.11,1.14-2.54,1.71-4.27,1.71-.94,0-1.9-.19-2.86-.56-.63-.24-1-.38-1.13-.42-.13-.04-.29-.05-.49-.05-.5,0-.88.21-1.13.64h-.34v-6.05h.34c.4,1.48.9,2.66,1.49,3.55,1.09,1.61,2.37,2.41,3.84,2.41.9,0,1.67-.27,2.32-.81.71-.6,1.07-1.45,1.07-2.54,0-.9-.26-1.68-.77-2.35-.28-.36-.64-.68-1.08-.98s-1.16-.72-2.19-1.26c-1.79-.95-2.98-1.75-3.58-2.39-.85-.91-1.28-1.97-1.28-3.16,0-1.28.43-2.39,1.28-3.31.98-1.05,2.29-1.58,3.91-1.58.73,0,1.4.13,2.03.38l.73.32c.23.09.43.13.6.13.27,0,.53-.21.77-.64h.43l.23,4.85h-.45c-.16-.68-.32-1.23-.5-1.65-.18-.41-.43-.81-.76-1.2-.44-.54-.95-.96-1.53-1.27-.58-.31-1.16-.46-1.73-.46-.8,0-1.47.29-2.04.87-.56.58-.84,1.29-.84,2.13,0,.7.25,1.33.76,1.89s1.28,1.08,2.33,1.55l2.26,1.03c1.35.61,2.36,1.38,3.03,2.29.67.91,1,1.99,1,3.23,0,1.5-.48,2.74-1.45,3.72ZM402.74,83.68c-1.22.85-2.84,1.27-4.86,1.27-1.75,0-3.26-.28-4.51-.83s-2.32-1.41-3.18-2.56c-1.21-1.61-1.82-3.59-1.82-5.94,0-3.21,1.15-5.72,3.44-7.54,1.67-1.32,3.57-1.99,5.71-1.99,1.14,0,2.19.2,3.16.61.97.41,1.79.99,2.46,1.76,1.04,1.2,1.56,2.69,1.56,4.49h-12.52c-.06.7-.09,1.2-.09,1.52,0,1.24.18,2.45.54,3.63.36,1.18.86,2.17,1.48,2.95.64.8,1.43,1.43,2.38,1.88.94.46,1.93.68,2.97.68.77,0,1.49-.13,2.18-.38s1.26-.61,1.71-1.07c.51-.5.95-1.3,1.32-2.39l.45.15c-.37,1.67-1.16,2.92-2.38,3.77Z"/>
    <path class="cls-1" d="M400.7,68.82c-.38-.7-.89-1.25-1.53-1.66-.64-.41-1.32-.61-2.04-.61-1.22,0-2.29.53-3.2,1.58-.91,1.05-1.46,2.38-1.63,3.98h9.19c-.1-1.42-.36-2.52-.79-3.29Z"/>
  </g>
</svg>