<?xml version="1.0" encoding="UTF-8"?>
<svg id="Layer_1" data-name="Layer 1" xmlns="http://www.w3.org/2000/svg" viewBox="0 0 568.3 157.07">
  <defs>
    <style>
      .cls-1 {
        fill: #778886;
        stroke-width: 0px;
      }
    </style>
  </defs>
  <path class="cls-1" d="M555.01,0H13.29C5.95,0,0,6.32,0,14.11v128.84c0,7.8,5.95,14.11,13.29,14.11h541.72c7.34,0,13.29-6.32,13.29-14.11V14.11c0-7.8-5.95-14.11-13.29-14.11ZM556.62,131.03c0,7.8-5.95,14.11-13.29,14.11H24.98c-7.34,0-13.29-6.32-13.29-14.11V26.04c0-7.8,5.95-14.11,13.29-14.11h518.35c7.34,0,13.29,6.32,13.29,14.11v104.98Z"/>
  <g>
    <path class="cls-1" d="M472.46,89.42c-1.52-2.09-3.37-3.13-5.57-3.13s-3.89,1.1-5.4,3.29c-1.53,2.2-2.3,4.88-2.3,8.05s.72,5.93,2.16,8.16c1.63,2.49,3.61,3.74,5.96,3.74,1,0,1.97-.28,2.91-.83.94-.55,1.76-1.33,2.44-2.32.72-1.03,1.3-2.33,1.75-3.89.44-1.56.67-3.07.67-4.53s-.24-3.04-.71-4.58c-.47-1.54-1.1-2.86-1.9-3.97Z"/>
    <path class="cls-1" d="M198.01,99.87c-.52.37-.99.81-1.41,1.33-.87,1.07-1.3,2.32-1.3,3.74,0,1.22.34,2.23,1.01,3.02s1.52,1.19,2.56,1.19c.9,0,1.75-.28,2.55-.85.8-.56,1.4-1.32,1.81-2.26.57-1.24.86-3.03.86-5.38v-4.63c-.99.83-2.09,1.56-3.29,2.19-1.34.72-2.27,1.27-2.79,1.63Z"/>
    <path class="cls-1" d="M443.09,89.42c-1.52-2.09-3.37-3.13-5.57-3.13s-3.89,1.1-5.4,3.29c-1.53,2.2-2.3,4.88-2.3,8.05s.72,5.93,2.16,8.16c1.63,2.49,3.61,3.74,5.96,3.74,1,0,1.97-.28,2.91-.83.94-.55,1.76-1.33,2.44-2.32.72-1.03,1.3-2.33,1.75-3.89.44-1.56.67-3.07.67-4.53s-.24-3.04-.71-4.58c-.47-1.54-1.1-2.86-1.9-3.97Z"/>
    <path class="cls-1" d="M353.9,86.29c-1.33,0-2.39.66-3.2,1.99-.41.66-.73,1.48-.97,2.43-.24.96-.36,1.92-.36,2.88,0,1.99.42,3.61,1.26,4.87.84,1.25,1.91,1.88,3.22,1.88s2.36-.62,3.09-1.87c.74-1.24,1.1-2.97,1.1-5.19s-.48-4.11-1.44-5.48c-.7-1.01-1.6-1.52-2.71-1.52Z"/>
    <path class="cls-1" d="M290.49,89.31c-1.38-1.88-3.06-2.83-5.05-2.83-.98,0-1.9.24-2.76.72-.86.48-1.55,1.14-2.07,1.97-.57.89-.97,1.99-1.19,3.31-.22,1.32-.33,3.2-.33,5.64s.11,4.47.33,5.76c.22,1.29.62,2.34,1.19,3.13.52.7,1.19,1.27,2.03,1.69.84.43,1.69.64,2.55.64,1.95,0,3.65-.92,5.11-2.77.88-1.11,1.56-2.42,2.04-3.93.48-1.51.72-3.09.72-4.74s-.23-3.14-.68-4.67c-.45-1.52-1.08-2.83-1.89-3.92Z"/>
    <path class="cls-1" d="M260.5,89.42c-1.52-2.09-3.37-3.13-5.57-3.13s-3.89,1.1-5.4,3.29c-1.53,2.2-2.3,4.88-2.3,8.05s.72,5.93,2.16,8.16c1.63,2.49,3.61,3.74,5.96,3.74,1,0,1.97-.28,2.91-.83.94-.55,1.76-1.33,2.44-2.32.72-1.03,1.3-2.33,1.75-3.89.44-1.56.67-3.07.67-4.53s-.24-3.04-.71-4.58c-.47-1.54-1.1-2.86-1.9-3.97Z"/>
    <path class="cls-1" d="M114.83,59.58c-1.9,0-.71-.48-3.09-2.38-2.38-1.9-2.61-2.14-5.65-2.14s-3.85.95-5.99,2.38c-2.14,1.43-1.9,2.85-3.09,3.09-1.19.24-.48.24-2.14-.71s-.95-2.61-6.65-3.33-4.51.24-8.08,1.19c-3.56.95-2.61.24-5.7,1.19-3.09.95-1.9,1.43-6.18,4.04-4.28,2.61-6.18,3.09-7.6,6.89-1.43,3.8-1.9,3.8-1.9,3.8,0,0-4.51,5.46-4.51,5.94s.48,0,.48.48-.48.48-1.19,1.66c-.71,1.19-.95,4.04-.95,4.75s-.95,1.43-1.66,1.66c-.71.24-2.61,3.33-2.85,3.8-.24.48.24,1.43.95,1.43s1.43-.48,2.14-1.19,1.9-1.9,2.61-1.66c.71.24.95-.24,1.66-.79.71-.55.71-1.35,1.19-2.06.48-.71.71-.48,2.38-.95,1.66-.48,2.38-1.66,2.85-1.19s0,1.43,0,2.38-1.66.95-3.09,1.43c-1.43.48-2.85,2.38-3.09,2.61-.24.24-.24.95-.24,1.66s.95,1.19,1.43,1.66c.48.48.71.71,2.14.48,1.43-.24,2.38-1.66,3.56-2.14,1.19-.48,4.04,0,4.75,1.19.71,1.19,0,5.7.24,6.41.24.71,1.43.48,1.9.48s.71-.48,1.19-.95,1.19-.48,1.66-.24c.48.24.24.24.95.48.71.24.71-.24.71-.24,0,0,.48-.71,1.19-1.19s1.43,0,1.66-.24c.24-.24.24-.71.24-.95s.48-.24-2.85-1.19c-3.33-.95-4.04-2.38-4.04-2.38,0,0,6.89.24,10.69-.95,3.8-1.19,4.99-3.56,6.2-4.51,1.21-.95,4.73-2.14,6.86-2.14s4.75.71,7.36,1.9c2.61,1.19,4.99,3.33,5.23,4.04.24.71,0,1.19,0,1.66s.24.95,1.43.48c1.19-.48,0-1.43,1.43-1.43h4.28s.95-1.19,1.66-1.9c.71-.71,3.33-1.9,3.33-2.38s0-.71-.71-.95c-.71-.24-4.28,1.66-6.41,2.14-2.14.48-1.9.48-7.13-2.14-5.23-2.61-5.46-5.7-5.46-5.7v-6.65s2.61.24,5.94-2.85c3.33-3.09,1.9-10.69,1.9-10.93s0-.71.95-.48c.95.24,3.09,1.66,5.23,3.09,2.14,1.43,5.7,2.38,6.18,2.61.48.24.48,0,.71-.24.24-.24-.24-.48-.24-1.19s.24-.48.48-1.19c.24-.71.24-1.43,0-2.14-.24-.71-.95-.95-1.19-1.43-.24-.48.71-1.19,1.66-.71.95.48.48.48,1.66,2.38,1.19,1.9,2.85,2.38,3.33,3.09.48.71-.24,2.14.71,1.9.95-.24,1.19-.48,3.33-.48s2.61.24,4.04.24,2.61-1.66.95-1.9c-1.66-.24-2.61.48-4.28-1.19s-1.19-2.85-2.61-4.04c-1.43-1.19-1.19-1.66-5.46-2.14-4.28-.48-5.46.95-7.36.95Z"/>
    <path class="cls-1" d="M209.06,51.71c-.36-.66-.84-1.18-1.45-1.56-.6-.38-1.25-.58-1.93-.58-1.15,0-2.16.5-3.02,1.49-.86,1-1.38,2.25-1.54,3.75h8.68c-.09-1.35-.34-2.38-.74-3.11Z"/>
    <path class="cls-1" d="M530.02,18.89H38.29c-7.39,0-13.38,5.99-13.38,13.38v92.61c0,7.39,5.99,13.38,13.38,13.38h491.73c7.39,0,13.38-5.99,13.38-13.38V32.27c0-7.39-5.99-13.38-13.38-13.38ZM304.65,71.57c.48-.47,1.08-.71,1.78-.71s1.3.24,1.78.71c.48.47.72,1.05.72,1.73s-.24,1.28-.71,1.75c-.47.46-1.07.69-1.8.69s-1.32-.23-1.8-.69c-.47-.46-.71-1.04-.71-1.75s.24-1.26.72-1.73ZM200.66,51.01c1.57-1.25,3.37-1.88,5.39-1.88,1.08,0,2.07.19,2.99.58.91.38,1.69.94,2.32,1.67.98,1.13,1.47,2.54,1.47,4.24h-11.83c-.05.66-.08,1.14-.08,1.43,0,1.17.17,2.31.51,3.43.34,1.12.81,2.05,1.4,2.79.6.75,1.35,1.35,2.24,1.78.89.43,1.83.65,2.81.65.72,0,1.41-.12,2.06-.36.65-.24,1.19-.58,1.62-1.01.48-.47.9-1.22,1.25-2.26l.42.14c-.35,1.57-1.1,2.76-2.25,3.56-1.15.8-2.68,1.2-4.59,1.2-1.66,0-3.08-.26-4.26-.79-1.18-.52-2.19-1.33-3.01-2.42-1.14-1.52-1.72-3.39-1.72-5.61,0-3.03,1.08-5.4,3.25-7.13ZM175.07,66.17c.81-.11,1.39-.26,1.74-.45.35-.19.63-.53.85-1,.15-.31.25-.78.31-1.4.06-.62.09-1.53.09-2.71v-15.82c0-1.37-.03-2.34-.1-2.9-.07-.56-.22-1.02-.44-1.37-.23-.38-.5-.65-.83-.81-.32-.16-.79-.26-1.39-.3v-.44l5.81-.73v13.82c.47-.58.89-1.03,1.25-1.35.36-.32.8-.61,1.31-.85.98-.48,2.1-.73,3.35-.73,1.59,0,2.9.32,3.94.95.74.47,1.25,1.05,1.52,1.72.28.68.41,1.7.41,3.05v5.89l.02,1.53c0,.91.05,1.58.16,2.01.11.42.32.78.63,1.06.38.36,1.07.64,2.08.83v.42h-8.92v-.42c.71-.09,1.22-.21,1.52-.34.3-.13.57-.36.82-.69.24-.34.41-.79.5-1.37s.14-1.43.14-2.56v-6.39c0-.97-.07-1.73-.22-2.3s-.4-1.06-.75-1.47c-.68-.79-1.65-1.19-2.9-1.19-3.25,0-4.87,2.57-4.87,7.7v3.23l.02,1.49c0,.91.05,1.58.16,2.01s.32.78.62,1.06c.38.36,1.07.64,2.07.83v.42h-8.92v-.42ZM91.69,129.22c-28.09,0-50.85-22.77-50.85-50.85s22.77-50.85,50.85-50.85,50.85,22.77,50.85,50.85-22.77,50.85-50.85,50.85ZM146.77,46.53l-.46-.04.36-7.45h27.31l.36,7.45-.46.04c-.36-1.87-.93-3.29-1.71-4.25-.77-.96-1.9-1.65-3.38-2.07-1.25-.36-3.37-.54-6.36-.54v20.59c0,1.37.08,2.39.23,3.06.15.67.44,1.21.86,1.65.38.39.8.67,1.28.85.48.18,1.1.28,1.87.32v.46h-12.9v-.46c.78-.04,1.41-.15,1.89-.32.48-.17.91-.46,1.28-.85.42-.43.7-.98.86-1.64.15-.66.23-1.68.23-3.07v-20.59c-.85,0-1.76.03-2.72.08-2.07.11-3.62.37-4.63.79-1.02.42-1.85,1.14-2.51,2.16-.61.94-1.07,2.22-1.39,3.84ZM188.43,96.08c-1.63.15-2.77.37-3.42.68-.66.3-1.14.83-1.45,1.57-.35.81-.53,2.43-.53,4.85,0,.66.04,1.7.11,3.1l.06.64c-.7-.26-1.22-.39-1.55-.39-.41,0-.92.21-1.55.64-1.61,1.11-3.47,1.96-5.6,2.55-2.12.59-4.37.89-6.73.89-3.25,0-6.18-.55-8.8-1.66-2.61-1.11-4.73-2.7-6.36-4.77-1.22-1.55-2.16-3.4-2.81-5.54-.66-2.14-.98-4.41-.98-6.82,0-3.31.59-6.38,1.77-9.23,1.18-2.84,2.84-5.19,4.99-7.04,1.76-1.5,3.78-2.65,6.07-3.46,2.29-.81,4.71-1.22,7.26-1.22,1.48,0,2.85.14,4.11.42,1.27.28,2.61.73,4.03,1.36l1.63.75c.41.17.78.25,1.11.25.74,0,1.3-.6,1.69-1.8h.72l.33,12.05-.64.06c-1.27-4.1-2.91-7.15-4.9-9.16-1.99-2-4.41-3.01-7.23-3.01-2.2,0-4.09.45-5.67,1.34-1.58.9-3.05,2.35-4.42,4.36-2.77,4.12-4.16,8.83-4.16,14.13,0,2.53.33,4.92,1,7.16.67,2.24,1.63,4.23,2.91,5.94,2.48,3.33,5.5,4.99,9.06,4.99,1.4,0,2.72-.3,3.96-.89,1.24-.59,2.25-1.4,3.05-2.44,1.09-1.44,1.63-3.15,1.63-5.13,0-1.83-.49-3.15-1.48-3.96-.99-.81-2.62-1.22-4.89-1.22v-.64h17.68v.64ZM209.15,110.15c-1.31,0-2.4-.32-3.27-.97-.57-.42-1.17-1.16-1.78-2.22-1.24,1.11-2.17,1.84-2.8,2.19-1.2.66-2.6,1-4.19,1-2.04,0-3.65-.49-4.84-1.47-1.19-.98-1.79-2.3-1.79-3.96,0-1.53.49-2.82,1.47-3.85.55-.57,1.19-1.03,1.91-1.37.72-.34,1.76-.69,3.13-1.04,1.61-.41,2.79-.75,3.56-1.03.77-.28,1.41-.61,1.93-1,.59-.42,1-.92,1.22-1.5.22-.57.33-1.37.33-2.38,0-2.16-.41-3.74-1.22-4.74-.37-.46-.85-.83-1.43-1.11-.58-.28-1.19-.42-1.82-.42-.76,0-1.43.19-2.02.58s-1.03.92-1.33,1.61l-.69,1.61c-.37.87-1.04,1.3-2,1.3-.63,0-1.15-.21-1.58-.62s-.64-.94-.64-1.57c0-.94.67-1.74,2-2.38.72-.33,1.61-.61,2.68-.82,1.06-.21,2.1-.32,3.12-.32,1.15,0,2.34.15,3.58.44,1.24.3,2.28.67,3.11,1.14,1.2.68,1.95,1.57,2.25,2.66.15.55.22,1.49.22,2.8v10.25c0,1.74.07,2.92.22,3.55.31,1.31,1.07,1.97,2.27,1.97.57,0,1.02-.1,1.34-.3.32-.2.71-.61,1.15-1.22l.47.28c-.67,1.94-2.19,2.91-4.57,2.91ZM226,109.65h-12.25v-.58c1.11-.15,1.9-.35,2.38-.62.48-.27.87-.72,1.16-1.37.2-.42.35-1.06.43-1.92.08-.86.13-2.1.13-3.72v-21.72c0-1.88-.05-3.21-.14-3.98-.09-.77-.3-1.4-.61-1.88-.31-.52-.69-.89-1.14-1.11-.44-.22-1.08-.36-1.91-.42v-.61l7.98-1v30.9l.03,2.1c0,1.26.07,2.17.22,2.76.15.58.43,1.07.86,1.45.52.5,1.47.88,2.85,1.14v.58ZM239.75,109.65h-12.25v-.58c1.11-.15,1.9-.35,2.38-.62.48-.27.87-.72,1.16-1.37.2-.42.35-1.06.43-1.92.08-.86.13-2.1.13-3.72v-21.72c0-1.88-.05-3.21-.14-3.98-.09-.77-.3-1.4-.61-1.88-.31-.52-.69-.89-1.14-1.11-.44-.22-1.08-.36-1.91-.42v-.61l7.98-1v30.9l.03,2.1c0,1.26.07,2.17.22,2.76.15.58.43,1.07.86,1.45.52.5,1.47.88,2.85,1.14v.58ZM264.99,105.89c-2.59,2.85-5.86,4.27-9.81,4.27s-7.23-1.42-9.84-4.27c-1.02-1.11-1.8-2.35-2.34-3.71-.54-1.37-.82-2.77-.82-4.21,0-2.99,1.11-5.66,3.33-8.01,2.7-2.84,5.92-4.27,9.67-4.27s6.96,1.42,9.64,4.27c2.22,2.37,3.33,5.04,3.33,8.04s-1.05,5.59-3.16,7.9ZM296.79,103.17c-.73,1.74-1.77,3.17-3.11,4.3-2.1,1.79-4.6,2.69-7.5,2.69-1.38,0-2.58-.2-3.58-.61-1.01-.41-2.17-1.15-3.5-2.22l.03,5.09v1.91c0,1.25.07,2.17.22,2.75.15.58.43,1.07.86,1.48.52.5,1.47.87,2.85,1.11v.58h-12.25v-.58c1.11-.15,1.9-.35,2.38-.61.48-.26.87-.71,1.16-1.36.2-.42.35-1.07.43-1.94.08-.87.13-2.1.13-3.71v-19.13c0-2.09-.33-3.57-.98-4.46-.66-.89-1.76-1.33-3.31-1.33v-.69l8.09-1.14c.2.89.31,1.7.31,2.44v.53c1.36-.92,2.65-1.58,3.85-1.98,1.2-.4,2.5-.6,3.9-.6,2.8,0,5.2.84,7.19,2.52,1.25,1.07,2.22,2.41,2.9,4.02.68,1.61,1.02,3.38,1.02,5.32s-.36,3.89-1.09,5.63ZM312.6,109.65h-12.25v-.58c1.11-.15,1.9-.35,2.38-.62.48-.27.87-.72,1.16-1.36.2-.42.35-1.06.43-1.92.08-.85.13-2.09.13-3.71v-6.81c0-1.89-.05-3.22-.14-3.98-.09-.76-.3-1.38-.61-1.86-.31-.51-.69-.89-1.14-1.12-.44-.23-1.08-.37-1.91-.43v-.58l7.98-1v15.96l.03,2.1c0,1.25.07,2.17.22,2.75.15.58.43,1.06.86,1.45.52.5,1.47.87,2.85,1.13v.58ZM342.33,109.65h-12.25v-.58c1.11-.15,1.9-.36,2.38-.62.48-.27.87-.72,1.16-1.37.2-.42.35-1.06.43-1.92s.12-2.09.12-3.7v-5.87c0-2.01-.07-3.49-.21-4.43-.14-.94-.4-1.7-.79-2.27-.42-.65-1.03-1.15-1.82-1.51-.79-.36-1.67-.54-2.63-.54-1.03,0-2,.2-2.89.61-.89.41-1.6.96-2.11,1.66-.55.74-.92,1.57-1.09,2.5-.17.93-.26,2.48-.26,4.64v5.42l.03,2.05c0,1.25.07,2.17.22,2.75.15.58.43,1.07.86,1.45.52.5,1.47.88,2.85,1.13v.58h-12.25v-.58c1.11-.15,1.9-.35,2.38-.62.48-.27.87-.72,1.16-1.36.2-.42.35-1.06.43-1.92.08-.85.13-2.09.13-3.71v-6.81c0-1.89-.05-3.22-.14-3.98-.09-.76-.3-1.38-.61-1.86-.31-.51-.69-.89-1.14-1.12-.44-.23-1.08-.37-1.91-.43v-.58l7.59-1c.26,1.08.39,2.08.39,3.01v.45c2.29-2.3,5.02-3.45,8.17-3.45,2.36,0,4.27.55,5.71,1.66,1.42,1.09,2.13,2.64,2.13,4.65v11.74c0,1.25.07,2.17.22,2.75.15.58.43,1.07.86,1.45.52.5,1.47.88,2.85,1.13v.58ZM366.63,89.11c-.26.29-.59.43-.98.43-.6,0-1.14-.31-1.62-.94l-.64-.83c-.35-.44-.85-.67-1.49-.67-.68,0-1.4.34-2.16,1.03,1.51,1.83,2.26,3.71,2.26,5.65,0,2.42-1.07,4.33-3.22,5.74-1.07.7-2.23,1.17-3.47,1.41-.37.06-1.55.15-3.53.28-2.72.17-4.07.92-4.07,2.27,0,1.18,1.16,1.77,3.47,1.77h4.58c1.61,0,2.97.14,4.08.43,1.11.29,2.08.73,2.91,1.34,1.63,1.2,2.44,2.89,2.44,5.07,0,2.4-.94,4.28-2.83,5.62-1.94,1.39-4.79,2.08-8.55,2.08-4.03,0-6.89-.81-8.57-2.44-1.07-1.05-1.61-2.36-1.61-3.94,0-1.24.4-2.29,1.19-3.15.79-.86,1.76-1.29,2.91-1.29.83,0,1.51.25,2.04.75.53.5.79,1.15.79,1.97v.31l-.5.14c-.31-.52-.63-.88-.94-1.08s-.7-.3-1.16-.3c-.78,0-1.41.3-1.9.89-.49.59-.73,1.36-.73,2.3,0,1.5.75,2.72,2.24,3.69s3.41,1.44,5.74,1.44c2.48,0,4.48-.53,6-1.59,1.52-1.06,2.29-2.44,2.29-4.14,0-1.37-.51-2.42-1.52-3.14-1.02-.73-2.47-1.09-4.35-1.09h-4.41c-1.81,0-3.27-.43-4.38-1.28-1.15-.89-1.72-1.95-1.72-3.2,0-1.32.61-2.35,1.83-3.11.63-.37,1.77-.77,3.44-1.2-1.61-.74-2.85-1.71-3.74-2.92-.89-1.21-1.33-2.54-1.33-4,0-1.86.69-3.52,2.08-4.98.81-.87,1.77-1.54,2.88-2.02,1.11-.48,2.25-.72,3.41-.72,1.77,0,3.59.63,5.43,1.88.87-.68,1.65-1.17,2.35-1.45.69-.29,1.45-.43,2.26-.43.91,0,1.64.19,2.19.58.67.48,1,1.07,1,1.77,0,.43-.13.78-.39,1.07ZM422.72,96.08c-1.63.15-2.77.37-3.42.68-.66.3-1.14.83-1.45,1.57-.35.81-.53,2.43-.53,4.85,0,.66.04,1.7.11,3.1l.06.64c-.7-.26-1.22-.39-1.55-.39-.41,0-.92.21-1.55.64-1.61,1.11-3.47,1.96-5.6,2.55-2.12.59-4.37.89-6.73.89-3.25,0-6.18-.55-8.8-1.66-2.61-1.11-4.73-2.7-6.36-4.77-1.22-1.55-2.16-3.4-2.81-5.54-.66-2.14-.98-4.41-.98-6.82,0-3.31.59-6.38,1.77-9.23,1.18-2.84,2.84-5.19,4.99-7.04,1.76-1.5,3.78-2.65,6.07-3.46,2.29-.81,4.71-1.22,7.26-1.22,1.48,0,2.85.14,4.11.42,1.27.28,2.61.73,4.03,1.36l1.63.75c.41.17.78.25,1.11.25.74,0,1.3-.6,1.69-1.8h.72l.33,12.05-.64.06c-1.27-4.1-2.91-7.15-4.9-9.16-1.99-2-4.41-3.01-7.23-3.01-2.2,0-4.09.45-5.67,1.34-1.58.9-3.05,2.35-4.42,4.36-2.77,4.12-4.16,8.83-4.16,14.13,0,2.53.33,4.92,1,7.16.67,2.24,1.63,4.23,2.91,5.94,2.48,3.33,5.5,4.99,9.06,4.99,1.4,0,2.72-.3,3.96-.89,1.24-.59,2.25-1.4,3.05-2.44,1.09-1.44,1.63-3.15,1.63-5.13,0-1.83-.49-3.15-1.48-3.96-.99-.81-2.62-1.22-4.89-1.22v-.64h17.68v.64ZM447.58,105.89c-2.59,2.85-5.86,4.27-9.81,4.27s-7.23-1.42-9.84-4.27c-1.02-1.11-1.8-2.35-2.34-3.71-.54-1.37-.82-2.77-.82-4.21,0-2.99,1.11-5.66,3.33-8.01,2.7-2.84,5.92-4.27,9.67-4.27s6.96,1.42,9.64,4.27c2.22,2.37,3.33,5.04,3.33,8.04s-1.05,5.59-3.16,7.9ZM476.95,105.89c-2.59,2.85-5.86,4.27-9.81,4.27s-7.23-1.42-9.84-4.27c-1.02-1.11-1.8-2.35-2.34-3.71-.54-1.37-.82-2.77-.82-4.21,0-2.99,1.11-5.66,3.33-8.01,2.7-2.84,5.92-4.27,9.67-4.27s6.96,1.42,9.64,4.27c2.22,2.37,3.33,5.04,3.33,8.04s-1.05,5.59-3.16,7.9ZM497.76,107.94c-1.44,1.48-3.29,2.22-5.54,2.22-1.22,0-2.46-.24-3.71-.72-.81-.31-1.3-.49-1.47-.54-.17-.05-.38-.07-.64-.07-.65,0-1.14.28-1.47.83h-.44v-7.84h.44c.52,1.92,1.16,3.45,1.94,4.6,1.42,2.09,3.08,3.13,4.98,3.13,1.16,0,2.17-.35,3.01-1.05.92-.78,1.38-1.87,1.38-3.3,0-1.16-.33-2.18-1-3.05-.37-.46-.83-.89-1.4-1.27s-1.51-.93-2.83-1.63c-2.32-1.24-3.87-2.27-4.64-3.1-1.11-1.18-1.66-2.55-1.66-4.1,0-1.66.55-3.09,1.66-4.3,1.27-1.37,2.97-2.05,5.07-2.05.94,0,1.82.17,2.63.5l.94.42c.3.11.55.17.78.17.35,0,.68-.28,1-.83h.55l.3,6.29h-.58c-.2-.89-.42-1.6-.65-2.13-.23-.54-.56-1.05-.98-1.55-.57-.7-1.23-1.25-1.99-1.65-.76-.4-1.5-.6-2.24-.6-1.03,0-1.91.37-2.64,1.12-.73.75-1.09,1.67-1.09,2.76,0,.91.33,1.72.98,2.45.65.73,1.66,1.4,3.03,2.01l2.93,1.33c1.75.79,3.06,1.78,3.93,2.97.87,1.18,1.3,2.58,1.3,4.18,0,1.94-.63,3.55-1.88,4.82ZM522.21,108.5c-1.58,1.1-3.68,1.65-6.3,1.65-2.27,0-4.22-.36-5.85-1.08-1.63-.72-3-1.83-4.13-3.33-1.57-2.09-2.36-4.66-2.36-7.7,0-4.16,1.49-7.42,4.46-9.78,2.16-1.72,4.63-2.58,7.4-2.58,1.48,0,2.84.26,4.1.79,1.26.53,2.32,1.29,3.19,2.29,1.35,1.55,2.02,3.49,2.02,5.82h-16.24c-.07.91-.11,1.56-.11,1.97,0,1.61.23,3.18.7,4.71.47,1.53,1.11,2.81,1.92,3.82.83,1.04,1.86,1.85,3.08,2.44,1.22.59,2.51.89,3.85.89.99,0,1.94-.17,2.83-.5s1.63-.79,2.22-1.39c.66-.65,1.23-1.68,1.71-3.1l.58.19c-.48,2.16-1.51,3.79-3.09,4.89Z"/>
    <path class="cls-1" d="M519.57,89.23c-.5-.9-1.16-1.62-1.99-2.15-.83-.53-1.71-.79-2.65-.79-1.58,0-2.97.68-4.15,2.05-1.19,1.37-1.89,3.09-2.11,5.15h11.92c-.13-1.85-.47-3.27-1.02-4.27Z"/>
  </g>
</svg>