<?xml version="1.0" encoding="UTF-8"?>
<svg id="Layer_1" data-name="Layer 1" xmlns="http://www.w3.org/2000/svg" viewBox="0 0 1292.78 142.69">
  <defs>
    <style>
      .cls-1 {
        fill: #fff4de;
      }

      .cls-2 {
        fill: #f35c47;
      }

      .cls-3 {
        fill: #ffc082;
      }

      .cls-4 {
        fill: #ff8c4c;
      }

      .cls-5 {
        fill: #32373b;
      }
    </style>
  </defs>
  <g>
    <path class="cls-5" d="m198.84,93.55l19.95,6.32c-3.06,11.12-8.14,19.38-15.26,24.78-7.11,5.4-16.14,8.1-27.07,8.1-13.53,0-24.65-4.62-33.36-13.87-8.71-9.24-13.07-21.88-13.07-37.92,0-16.96,4.38-30.13,13.14-39.51,8.76-9.38,20.27-14.07,34.54-14.07,12.46,0,22.59,3.68,30.37,11.05,4.63,4.36,8.11,10.61,10.43,18.77l-20.37,4.87c-1.21-5.28-3.72-9.45-7.54-12.51-3.82-3.06-8.47-4.59-13.94-4.59-7.55,0-13.68,2.71-18.38,8.13-4.7,5.42-7.05,14.2-7.05,26.34,0,12.88,2.32,22.06,6.95,27.52,4.63,5.47,10.66,8.2,18.07,8.2,5.47,0,10.17-1.74,14.11-5.21,3.94-3.48,6.76-8.94,8.48-16.4Z"/>
    <path class="cls-5" d="m228.94,93.06c0-6.49,1.6-12.77,4.8-18.84,3.2-6.07,7.73-10.7,13.59-13.9,5.86-3.2,12.41-4.8,19.64-4.8,11.17,0,20.32,3.63,27.45,10.88,7.14,7.25,10.7,16.42,10.7,27.49s-3.6,20.42-10.81,27.77c-7.21,7.34-16.28,11.02-27.21,11.02-6.77,0-13.22-1.53-19.36-4.59-6.14-3.06-10.81-7.54-14.01-13.45-3.2-5.91-4.8-13.1-4.8-21.58Zm20.02,1.04c0,7.32,1.74,12.93,5.21,16.82,3.48,3.89,7.76,5.84,12.86,5.84s9.37-1.95,12.82-5.84c3.45-3.89,5.18-9.55,5.18-16.96s-1.73-12.79-5.18-16.68c-3.45-3.89-7.73-5.84-12.82-5.84s-9.38,1.95-12.86,5.84c-3.48,3.89-5.21,9.5-5.21,16.82Z"/>
    <path class="cls-5" d="m317.56,131.01V29.12h19.53v101.9h-19.53Z"/>
    <path class="cls-5" d="m436.91,57.2h18v10.08c6.44-7.83,14.11-11.75,23.01-11.75,4.73,0,8.83.97,12.3,2.92,3.48,1.95,6.33,4.89,8.55,8.83,3.24-3.94,6.74-6.88,10.5-8.83s7.76-2.92,12.02-2.92c5.42,0,10.01,1.1,13.76,3.3,3.75,2.2,6.56,5.43,8.41,9.7,1.34,3.15,2.02,8.25,2.02,15.29v47.19h-19.53v-42.19c0-7.32-.67-12.05-2.02-14.18-1.81-2.78-4.59-4.17-8.34-4.17-2.73,0-5.31.83-7.71,2.5-2.41,1.67-4.15,4.11-5.21,7.33-1.07,3.22-1.6,8.31-1.6,15.26v35.45h-19.53v-40.45c0-7.18-.35-11.82-1.04-13.9-.7-2.08-1.77-3.64-3.23-4.66-1.46-1.02-3.44-1.53-5.94-1.53-3.01,0-5.72.81-8.13,2.43-2.41,1.62-4.14,3.96-5.18,7.02-1.04,3.06-1.56,8.13-1.56,15.22v35.86h-19.53V57.2Z"/>
    <path class="cls-5" d="m561.26,131.01V29.12h19.53v36.7c6.02-6.86,13.16-10.29,21.41-10.29,8.99,0,16.43,3.26,22.31,9.77,5.88,6.51,8.83,15.86,8.83,28.05s-3,22.31-9,29.12c-6,6.81-13.29,10.22-21.86,10.22-4.22,0-8.38-1.05-12.48-3.16-4.1-2.11-7.63-5.22-10.6-9.35v10.84h-18.14Zm19.39-38.51c0,7.65,1.2,13.3,3.61,16.96,3.38,5.19,7.88,7.78,13.48,7.78,4.31,0,7.98-1.84,11.02-5.53,3.03-3.68,4.55-9.49,4.55-17.41,0-8.43-1.53-14.51-4.59-18.25-3.06-3.73-6.97-5.6-11.75-5.6s-8.57,1.82-11.68,5.46c-3.1,3.64-4.66,9.16-4.66,16.58Z"/>
    <path class="cls-5" d="m646.2,47.19v-18.07h19.53v18.07h-19.53Zm0,83.82V57.2h19.53v73.81h-19.53Z"/>
    <path class="cls-5" d="m697.5,79.72l-17.72-3.2c1.99-7.13,5.42-12.42,10.29-15.85,4.87-3.43,12.09-5.14,21.69-5.14,8.71,0,15.2,1.03,19.46,3.09,4.26,2.06,7.26,4.68,9,7.85,1.74,3.17,2.61,9,2.61,17.48l-.21,22.8c0,6.49.31,11.27.94,14.35.63,3.08,1.8,6.38,3.51,9.9h-19.32c-.51-1.3-1.14-3.22-1.88-5.77-.32-1.16-.56-1.92-.7-2.29-3.34,3.24-6.9,5.68-10.7,7.3-3.8,1.62-7.85,2.43-12.16,2.43-7.6,0-13.59-2.06-17.97-6.19-4.38-4.12-6.57-9.34-6.57-15.64,0-4.17,1-7.89,2.99-11.16,1.99-3.27,4.78-5.77,8.38-7.51,3.59-1.74,8.77-3.25,15.53-4.55,9.13-1.71,15.45-3.31,18.98-4.8v-1.95c0-3.75-.93-6.43-2.78-8.03-1.85-1.6-5.35-2.4-10.5-2.4-3.48,0-6.19.68-8.13,2.05-1.95,1.37-3.52,3.77-4.73,7.19Zm26.13,15.85c-2.5.83-6.46,1.83-11.89,2.99-5.42,1.16-8.97,2.29-10.63,3.41-2.55,1.81-3.82,4.1-3.82,6.88s1.02,5.1,3.06,7.09c2.04,1.99,4.63,2.99,7.78,2.99,3.52,0,6.88-1.16,10.08-3.48,2.36-1.76,3.92-3.92,4.66-6.46.51-1.67.76-4.84.76-9.52v-3.89Z"/>
    <path class="cls-5" d="m826.36,131.01h-19.53v-37.67c0-7.97-.42-13.12-1.25-15.47-.83-2.34-2.19-4.16-4.07-5.46-1.88-1.3-4.14-1.95-6.78-1.95-3.38,0-6.42.93-9.11,2.78-2.69,1.85-4.53,4.31-5.53,7.37-1,3.06-1.49,8.71-1.49,16.96v33.43h-19.53V57.2h18.14v10.84c6.44-8.34,14.55-12.51,24.33-12.51,4.31,0,8.25.78,11.82,2.33,3.57,1.55,6.27,3.53,8.1,5.94,1.83,2.41,3.1,5.14,3.82,8.2.72,3.06,1.08,7.44,1.08,13.14v45.87Z"/>
    <path class="cls-5" d="m945.36,93.55l19.95,6.32c-3.06,11.12-8.14,19.38-15.26,24.78-7.11,5.4-16.14,8.1-27.07,8.1-13.53,0-24.65-4.62-33.36-13.87-8.71-9.24-13.07-21.88-13.07-37.92,0-16.96,4.38-30.13,13.14-39.51,8.76-9.38,20.27-14.07,34.54-14.07,12.46,0,22.59,3.68,30.37,11.05,4.63,4.36,8.11,10.61,10.43,18.77l-20.37,4.87c-1.21-5.28-3.72-9.45-7.54-12.51-3.82-3.06-8.47-4.59-13.94-4.59-7.55,0-13.68,2.71-18.38,8.13-4.7,5.42-7.05,14.2-7.05,26.34,0,12.88,2.32,22.06,6.95,27.52,4.63,5.47,10.66,8.2,18.07,8.2,5.47,0,10.17-1.74,14.11-5.21,3.94-3.48,6.76-8.94,8.48-16.4Z"/>
    <path class="cls-5" d="m975.46,93.06c0-6.49,1.6-12.77,4.8-18.84,3.2-6.07,7.73-10.7,13.59-13.9,5.86-3.2,12.41-4.8,19.63-4.8,11.17,0,20.32,3.63,27.46,10.88,7.13,7.25,10.7,16.42,10.7,27.49s-3.6,20.42-10.81,27.77c-7.21,7.34-16.28,11.02-27.21,11.02-6.77,0-13.22-1.53-19.36-4.59-6.14-3.06-10.81-7.54-14.01-13.45-3.2-5.91-4.8-13.1-4.8-21.58Zm20.02,1.04c0,7.32,1.74,12.93,5.21,16.82,3.48,3.89,7.76,5.84,12.86,5.84s9.37-1.95,12.82-5.84c3.45-3.89,5.18-9.55,5.18-16.96s-1.73-12.79-5.18-16.68c-3.45-3.89-7.73-5.84-12.82-5.84s-9.38,1.95-12.86,5.84c-3.47,3.89-5.21,9.5-5.21,16.82Z"/>
    <path class="cls-5" d="m349.46,93.06c0-6.49,1.6-12.77,4.8-18.84,3.2-6.07,7.73-10.7,13.59-13.9,5.86-3.2,12.41-4.8,19.63-4.8,11.17,0,20.32,3.63,27.46,10.88,7.13,7.25,10.7,16.42,10.7,27.49s-3.6,20.42-10.81,27.77c-7.21,7.34-16.28,11.02-27.21,11.02-6.77,0-13.22-1.53-19.36-4.59-6.14-3.06-10.81-7.54-14.01-13.45-3.2-5.91-4.8-13.1-4.8-21.58Zm20.02,1.04c0,7.32,1.74,12.93,5.21,16.82,3.48,3.89,7.76,5.84,12.86,5.84s9.37-1.95,12.82-5.84c3.45-3.89,5.18-9.55,5.18-16.96s-1.73-12.79-5.18-16.68c-3.45-3.89-7.73-5.84-12.82-5.84s-9.38,1.95-12.86,5.84c-3.47,3.89-5.21,9.5-5.21,16.82Z"/>
    <path class="cls-5" d="m1055.53,57.2h10.84v-5.56c0-6.21.66-10.84,1.98-13.9,1.32-3.06,3.75-5.55,7.3-7.47,3.54-1.92,8.03-2.88,13.45-2.88s11,.83,16.33,2.5l-2.64,13.62c-3.1-.74-6.09-1.11-8.97-1.11s-4.85.66-6.08,1.98c-1.23,1.32-1.84,3.86-1.84,7.61v5.21h14.6v15.36h-14.6v58.45h-19.53v-58.45h-10.84v-15.36Z"/>
    <path class="cls-5" d="m1100.09,57.2h10.84v-5.56c0-6.21.66-10.84,1.98-13.9,1.32-3.06,3.75-5.55,7.3-7.47,3.54-1.92,8.03-2.88,13.45-2.88s11,.83,16.33,2.5l-2.64,13.62c-3.1-.74-6.09-1.11-8.97-1.11s-4.85.66-6.08,1.98c-1.23,1.32-1.84,3.86-1.84,7.61v5.21h14.6v15.36h-14.6v58.45h-19.53v-58.45h-10.84v-15.36Z"/>
    <path class="cls-5" d="m1195.94,107.52l19.46,3.27c-2.5,7.14-6.45,12.57-11.85,16.3-5.4,3.73-12.15,5.6-20.26,5.6-12.84,0-22.33-4.19-28.5-12.58-4.87-6.72-7.3-15.2-7.3-25.44,0-12.23,3.2-21.81,9.59-28.74,6.39-6.93,14.48-10.39,24.26-10.39,10.98,0,19.65,3.63,26,10.88,6.35,7.25,9.38,18.36,9.11,33.33h-48.93c.14,5.79,1.71,10.3,4.73,13.52,3.01,3.22,6.76,4.83,11.26,4.83,3.06,0,5.63-.83,7.72-2.5,2.08-1.67,3.66-4.35,4.73-8.06Zm1.11-19.74c-.14-5.65-1.6-9.95-4.38-12.89-2.78-2.94-6.16-4.41-10.15-4.41-4.26,0-7.79,1.55-10.57,4.66-2.78,3.1-4.15,7.32-4.1,12.65h29.19Z"/>
    <path class="cls-5" d="m1272.26,107.52l19.46,3.27c-2.5,7.14-6.45,12.57-11.85,16.3-5.4,3.73-12.15,5.6-20.26,5.6-12.84,0-22.33-4.19-28.5-12.58-4.87-6.72-7.3-15.2-7.3-25.44,0-12.23,3.2-21.81,9.59-28.74,6.39-6.93,14.48-10.39,24.26-10.39,10.98,0,19.65,3.63,26,10.88,6.35,7.25,9.38,18.36,9.11,33.33h-48.93c.14,5.79,1.71,10.3,4.73,13.52,3.01,3.22,6.76,4.83,11.26,4.83,3.06,0,5.63-.83,7.72-2.5,2.08-1.67,3.66-4.35,4.73-8.06Zm1.11-19.74c-.14-5.65-1.6-9.95-4.38-12.89-2.78-2.94-6.16-4.41-10.15-4.41-4.26,0-7.79,1.55-10.57,4.66-2.78,3.1-4.15,7.32-4.1,12.65h29.19Z"/>
  </g>
  <g>
    <path class="cls-5" d="m17.57,142.69c-.76-.53-1.69-.92-2.24-1.62-.63-.79-.99-1.82-1.34-2.79-.28-.78-.45-1.63-.54-2.46-.09-.86.04-1.74-.06-2.6-.24-2.16-.59-4.3-.81-6.46-.1-1.02.24-2.1-.63-2.99-.13-.14.31-.74.31-1.13,0-1.39-.05-2.78-.14-4.17-.01-.21-.34-.38-.42-.6-.11-.34-.17-.71-.16-1.06.02-1,.1-2,.12-3,0-.25-.27-.55-.2-.75.46-1.43-.73-2-1.41-2.83-.85-1.03-1.69-2.06-2.53-3.09-.08-.1-.18-.27-.15-.34.88-1.83-.09-3.62-.17-5.41-.15-3.3-.73-6.58-1.03-9.87-.26-2.91-.34-5.84-.59-8.76-.32-3.72-.73-7.43-1.09-11.14-.11-1.18-.16-2.37-.31-3.55-.06-.47-.34-.9-.5-1.36-.07-.22-.13-.46-.12-.68.05-1.1.17-2.21.19-3.31.04-2.09-.85-4.24.25-6.23.5-.9,1.36-1.6,2.37-2.75-.2-.73-.62-1.98-.87-3.25-.09-.44.34-.95.33-1.43-.03-1.32-.15-2.65-.27-3.97-.02-.17-.23-.32-.31-.5-.19-.38-.82-.56-.08-1.23.7-.63.03-2-.96-2.37-2.35-.86-4.12-3.3-4.15-5.81-.03-2.74.12-5.49-.06-8.21-.25-3.8,3.13-7.45,6.86-6.88.27.04.55,0,.88,0,1.14-4.67,2.24-9.3,3.42-13.91.72-2.82,2.07-5.13,5.31-5.64C16.69.49,16.84.18,17.02,0c1.11,0,2.23,0,3.34,0h1.39c.28,0,.56,0,.84,0,.48.19.94.5,1.43.53,2.15.14,4.32.18,6.47.31,2.6.16,5.2.56,7.79.48,1.72-.05,3.37.12,5.05.33,1.14.14,2.23-.11,3.47.16,2.34.49,4.86.11,7.3.16.51.01,1,.47,1.51.52,1.86.15,3.74.3,5.6.27,1.14-.02,2.17-.57,3.39.22.57.37,1.77-.24,2.69-.39.21-.03.56-.06.62.04.69,1.12,1.78.63,2.72.71,4.44.38,8.9.58,13.31,1.17,3.09.41,4.46,2.93,5.25,5.65.85,2.91,1.48,5.87,2.26,8.8.18.66.51,1.18,1.44,1.13,3.81-.21,6.43,2.38,6.75,5.93.3,3.34.12,6.75-.21,10.1-.23,2.37-1.99,3.96-4.15,4.79-.97.37-1.08.79-1.1,1.64-.03,1.55-.15,3.1-.29,4.64-.2,2.21-.48,4.42-.66,6.63-.02.25.35.6.62.79,2.12,1.5,2.9,4.01,2.13,6.49-.29.94-.29,1.98-.39,2.97-.2,2.04-.38,4.09-.56,6.13-.02.28,0,.56,0,.84-.09,1.59-.15,3.19-.3,4.78-.14,1.54-.38,3.06-.53,4.6-.39,3.99-.77,7.98-1.11,11.98-.23,2.65-.36,5.3-.58,7.95-.14,1.77-.64,3.56-.48,5.29.24,2.63-1.26,3.74-3.19,4.79-.39.21-.67.86-.74,1.35-.18,1.22-.21,2.46-.32,3.69-.36,4-.75,8-1.1,12-.14,1.55-.16,3.11-.3,4.67-.15,1.76-.48,3.52-.53,5.28-.07,2.74-1.83,4.11-3.92,5.3h-8.08c-.39-.74-.78-1.48-1.17-2.22.38-1.66,1.52-2.07,3.07-1.99,1.48.08,2.96,0,4.45.02.85,0,1.41-.26,1.45-1.24.14-3.04,1.09-6,.83-9.08-.03-.32,0-.64.05-.96.35-2.31.78-4.61,1.03-6.92.15-1.46-.03-2.96.04-4.44.08-1.67.28-3.33.43-5.06h-7.93c-.32-.02-.65-.06-.97-.06-19.5,0-39.01,0-58.51,0-.31,0-.63.05-1,.08,0,.94-.06,1.82.01,2.69.24,2.96.55,5.91.78,8.86.04.47-.28.99-.21,1.45.2,1.28.64,2.53.77,3.82.27,2.59.36,5.21.59,7.81.27,3.06.3,3.06,3.44,3.06,14.21,0,28.42,0,42.63,0,2.03,0,2.5.32,3.21,2.23-.55.65-1.09,1.31-1.64,1.96H17.57Zm-1.67-86.71c-.6,1.51-1.69,2.14-3.33,2-1.11-.09-2.24.08-3.34-.04-1.35-.15-1.87.44-1.79,1.69.03.42.32.82.36,1.24.3,3.41.59,6.81.83,10.23.04.53-.29,1.09-.22,1.6.2,1.54.55,3.07.77,4.61.05.36-.17.77-.27,1.15-.07.25-.28.68-.22.73,1.3.93.66,2.41.99,3.6.4,1.46-.56,3.05.32,4.59.33.57.28,1.4.29,2.11.03,1.41-.34,2.81.27,4.21.27.63.22,1.41.27,2.12.12,1.45.23,2.9.3,4.35.01.25-.2.5-.26.76-.05.23-.05.49,0,.72.17.78.45,1.54.55,2.33.33,2.58.31,2.58,2.9,2.58,23.87-.01,47.74-.02,71.61-.04.59,0,1.18-.05,1.58-.07,1.33-2.67-.22-5.67,1.6-8.07-.48-1.09-1.02-2.16.18-3.2.16-.14.02-.66-.05-1-.08-.39-.33-.76-.34-1.14-.04-2.3,1.34-4.49.56-6.86-.02-.07.06-.17.07-.26.16-1.72.28-3.45.48-5.17.17-1.44.43-2.87.65-4.31.06-.37.19-.74.17-1.1-.02-.35-.36-.78-.24-1.03.61-1.27.45-2.51.35-3.87-.13-1.85.27-3.73.46-5.6.13-1.37.02-2.83.51-4.06.31-.78.54-1.21.18-2.04-.47-1.08-1.28-.74-1.99-.74-21.55-.02-43.1-.03-64.65-.04-1.44,0-3.05.38-3.57-1.64-.04-.14-.28-.23-.42-.34.56-1.7,1.23-2.2,2.97-2.2,18.9,0,37.81,0,56.71,0,2.64,0,5.27,0,7.89,0,.4-4.19.79-8.25,1.19-12.39H9.39c.12,1,.26,1.89.33,2.79.13,1.69.24,3.39.32,5.09.02.45-.22.91-.17,1.35.04.42.43.82.44,1.23.07,1.93.04,2,1.91,1.91,1.78-.09,3.11.39,3.69,2.21Zm32.08-31.92c-4.69,0-9.38-.02-14.07,0-9.09.05-18.19.11-27.28.19-1.73.02-2.37.72-2.39,2.47-.03,2.55-.02,5.11,0,7.66,0,.45.11.92.25,1.36.39,1.23,1.27,1.71,2.52,1.51.54-.09,1.1-.12,1.65-.12,25.82,0,51.65,0,77.47,0,.73,0,1.5.29,2.19.16,2.11-.41,4.78,1.34,6.28-1.56.03-.06.21-.03.24-.09.25-.39.68-.78.69-1.18.06-2.6.06-5.2.02-7.8-.02-1.3-1.06-2.39-2.17-2.41-3.57-.07-7.13-.18-10.7-.19-11.56-.02-23.13,0-34.69,0Zm-15.67-19.43c-1.02.15-1.82.37-2.61.37-1.14,0-2.28-.16-3.42-.26-1.02-.08-2.15.35-2.95-.71-.09-.11-.49,0-.74.03-.97.11-2.01.51-2.9.3-2.43-.58-4.11.78-4.62,3.02-.48,2.11-.89,4.24-1.41,6.34-.5,2.01-1.12,3.98-1.73,6.13h75.48c-.82-3.21-1.55-6.33-2.44-9.4-.32-1.1-1.07-2.03-2.45-2.08-1.24-.05-2.47-.16-3.7-.28-.49-.05-.96-.23-1.44-.33-.44-.09-.92-.27-1.33-.19-1.49.3-2.95.66-4.06-.31-1.11.1-2.04.29-2.97.25-2.65-.13-5.3-.32-7.94-.55-.63-.06-1.24-.39-1.87-.56-.31-.08-.7-.17-.97-.06-1.4.57-2.73.72-3.81-.43-1.64.64-3.14,1.03-4.49-.32-1.78.88-3.17.8-4.46-.25-1.58.71-3.12,1.02-4.46-.26-1.62.66-3.13,1.02-4.47-.32-1.76.89-3.21.8-4.22-.12Z"/>
    <path class="cls-2" d="m21.47,55.98c.14.11.38.2.42.34.53,2.02,2.14,1.64,3.57,1.64,21.55,0,43.1.01,64.65.04.71,0,1.52-.35,1.99.74.36.83.13,1.26-.18,2.04-.49,1.22-.38,2.69-.51,4.06-.18,1.87-.59,3.75-.46,5.6.1,1.36.26,2.6-.35,3.87-.12.24.23.68.24,1.03.02.36-.11.73-.17,1.1-.22,1.44-.48,2.87-.65,4.31-.2,1.72-.32,3.44-.48,5.17,0,.09-.09.19-.07.26.78,2.37-.6,4.56-.56,6.86,0,.38.26.75.34,1.14.07.33.21.86.05,1-1.19,1.04-.65,2.12-.18,3.2-1.83,2.4-.27,5.41-1.6,8.07-.41.02-.99.07-1.58.07-23.87.02-47.74.03-71.61.04-2.6,0-2.57,0-2.9-2.58-.1-.79-.38-1.55-.55-2.33-.05-.23-.04-.49,0-.72.05-.26.27-.51.26-.76-.07-1.45-.18-2.9-.3-4.35-.06-.71,0-1.49-.27-2.12-.61-1.4-.24-2.8-.27-4.21-.02-.71.04-1.53-.29-2.11-.88-1.53.09-3.13-.32-4.59-.33-1.19.31-2.67-.99-3.6-.07-.05.15-.47.22-.73.1-.38.32-.79.27-1.15-.22-1.54-.57-3.07-.77-4.61-.07-.52.26-1.08.22-1.6-.25-3.41-.53-6.82-.83-10.23-.04-.42-.33-.82-.36-1.24-.08-1.25.44-1.84,1.79-1.69,1.1.12,2.23-.05,3.34.04,1.63.14,2.72-.49,3.33-2,1.86,0,3.72,0,5.57,0Zm13.27,26.75c.13,1.14.24,2.28.4,3.41.75,5.1,3.01,9.34,7.13,12.53,4.22,3.26,8.9,4.07,13.73,1.89,6.83-3.09,10.06-8.86,10.56-16.11.31-4.44-.06-8.87-3.23-12.52-1.16-1.33-1.98-3.01-3.29-4.15-3.33-2.89-7.22-4.19-11.72-3.42-3.19.54-5.94,1.94-8.05,4.27-3.59,3.96-5.55,8.65-5.55,14.1Z"/>
    <path class="cls-1" d="m72.7,140.47c-1.94.08-3.89.17-5.83.25-.71-1.9-1.17-2.23-3.21-2.23-14.21,0-28.42,0-42.63,0-3.14,0-3.17,0-3.44-3.06-.23-2.6-.32-5.21-.59-7.81-.13-1.29-.57-2.54-.77-3.82-.07-.46.25-.97.21-1.45-.24-2.96-.54-5.91-.78-8.86-.07-.87-.01-1.75-.01-2.69.38-.03.69-.08,1-.08,19.5,0,39.01,0,58.51,0,.32,0,.65.04.97.06.35,1.12.69.38,1.04,0h6.9c-.15,1.73-.35,3.4-.43,5.06-.07,1.48.11,2.97-.04,4.44-.25,2.32-.68,4.62-1.03,6.92-.05.32-.08.64-.05.96.26,3.08-.7,6.04-.83,9.08-.04.99-.6,1.25-1.45,1.24-1.48,0-2.97.06-4.45-.02-1.55-.08-2.69.33-3.07,1.99Z"/>
    <path class="cls-3" d="m47.98,24.06c11.56,0,23.13-.02,34.69,0,3.57,0,7.13.12,10.7.19,1.11.02,2.15,1.11,2.17,2.41.05,2.6.05,5.2-.02,7.8,0,.4-.44.79-.69,1.18-.04.06-.22.04-.24.09-1.49,2.9-4.16,1.15-6.28,1.56-.69.13-1.46-.16-2.19-.16-25.82-.01-51.65,0-77.47,0-.55,0-1.11.03-1.65.12-1.25.2-2.12-.28-2.52-1.51-.14-.43-.24-.9-.25-1.36-.02-2.55-.03-5.11,0-7.66.02-1.75.67-2.45,2.39-2.47,9.09-.09,18.19-.15,27.28-.19,4.69-.02,9.38,0,14.07,0Z"/>
    <path class="cls-1" d="m21.47,55.98c-1.86,0-3.72,0-5.57,0-.58-1.82-1.91-2.3-3.69-2.21-1.86.1-1.84.02-1.91-1.91-.01-.42-.4-.81-.44-1.23-.05-.44.19-.9.17-1.35-.07-1.7-.18-3.39-.32-5.09-.07-.9-.21-1.8-.33-2.79h80.86c-.4,4.14-.79,8.2-1.19,12.39-2.62,0-5.26,0-7.89,0-18.9,0-37.81,0-56.71,0-1.74,0-2.41.5-2.97,2.2Z"/>
    <path class="cls-4" d="m32.32,4.62c1,.92,2.46,1,4.22.12,1.35,1.34,2.85.98,4.47.32,1.34,1.28,2.89.97,4.46.26,1.29,1.05,2.68,1.13,4.46.25,1.35,1.35,2.85.96,4.49.32,1.08,1.15,2.4,1,3.81.43.27-.11.66-.02.97.06.63.16,1.24.5,1.87.56,2.64.23,5.29.43,7.94.55.93.04,1.86-.15,2.97-.25,1.11.98,2.57.62,4.06.31.41-.08.89.1,1.33.19.48.1.96.28,1.44.33,1.23.12,2.47.23,3.7.28,1.38.06,2.13.98,2.45,2.08.89,3.07,1.62,6.19,2.44,9.4H11.93c.61-2.15,1.23-4.12,1.73-6.13.53-2.1.94-4.23,1.41-6.34.51-2.25,2.19-3.61,4.62-3.02.89.21,1.93-.19,2.9-.3.25-.03.66-.15.74-.03.8,1.06,1.93.63,2.95.71,1.14.1,2.28.25,3.42.26.79,0,1.58-.22,2.61-.37Z"/>
    <path class="cls-3" d="m77.16,110.8c-.35.38-.69,1.12-1.04,0,.35,0,.69,0,1.04,0Z"/>
    <path class="cls-5" d="m34.74,82.73c0-5.46,1.96-10.15,5.55-14.1,2.11-2.33,4.86-3.72,8.05-4.27,4.5-.77,8.38.53,11.72,3.42,1.31,1.14,2.13,2.82,3.29,4.15,3.16,3.65,3.54,8.08,3.23,12.52-.5,7.25-3.73,13.02-10.56,16.11-4.83,2.18-9.51,1.37-13.73-1.89-4.12-3.19-6.38-7.43-7.13-12.53-.17-1.13-.27-2.27-.4-3.41Zm12.92,14.13c-.44-1.31-.87-2.31-1.1-3.36-.35-1.53-.91-3.13-.76-4.64.3-2.86,1.62-5.31,3.75-7.38,1.61-1.57,2.38-3.6,1.75-5.97-.52-1.96-.95-3.94-1.45-5.91-.23-.92-.85-1.2-1.77-.99-2.69.63-4.69,2.38-6.09,4.51-3.52,5.35-4.06,11.1-1.33,17.01,1.4,3.03,3.44,5.43,7,6.72Zm6.15-27.77c.38,1.16.77,2.16,1.03,3.18.36,1.44.88,2.91.89,4.37.02,3.23-1.21,6.04-3.61,8.28-1.49,1.39-2.38,3.2-2.12,5.12.3,2.21,1.19,4.34,1.92,6.47.11.33.81.78,1.07.69,2.35-.83,4.5-1.98,6.07-4.02,2.5-3.25,3.48-6.92,3.4-11-.09-4.33-1.66-8-4.63-11.06-1.02-1.05-2.31-1.84-4.01-2.02Z"/>
    <path class="cls-3" d="m47.66,96.86c-3.56-1.29-5.6-3.69-7-6.72-2.73-5.91-2.2-11.66,1.33-17.01,1.4-2.13,3.41-3.88,6.09-4.51.92-.21,1.54.07,1.77.99.5,1.97.93,3.95,1.45,5.91.63,2.36-.14,4.4-1.75,5.97-2.13,2.08-3.46,4.53-3.75,7.38-.16,1.51.41,3.11.76,4.64.24,1.05.67,2.05,1.1,3.36Z"/>
    <path class="cls-3" d="m53.81,69.09c1.7.18,2.99.96,4.01,2.02,2.98,3.06,4.54,6.73,4.63,11.06.09,4.08-.9,7.75-3.4,11-1.57,2.04-3.72,3.2-6.07,4.02-.26.09-.95-.36-1.07-.69-.73-2.13-1.62-4.26-1.92-6.47-.26-1.92.63-3.73,2.12-5.12,2.4-2.24,3.63-5.04,3.61-8.28,0-1.46-.53-2.92-.89-4.37-.26-1.03-.65-2.02-1.03-3.18Z"/>
  </g>
</svg>