<svg id="Capa_1" enable-background="new 0 0 512 512" viewBox="0 0 512 512" xmlns="http://www.w3.org/2000/svg"><g><path d="m217.032 0h18.375l5.366 18.198-11.728 43.873-18.412-12.523-9.27-27.809c-3.564-10.695 4.396-21.739 15.669-21.739z" fill="#736572"/><path d="m243.666 49.548 9.27-27.809c3.564-10.695-4.396-21.739-15.669-21.739h-1.859l-12.63 49.548 6.267 12.523z" fill="#605360"/><path d="m444.885 126.551-15.361-15.361c-7.743-7.743-18.246-7.201-29.197-7.201h-49.307v44.655h49.548c9.121 0 16.516 7.394 16.516 16.516v90.84c0 9.121-7.395 16.516-16.516 16.516s-16.516 7.394-16.516 16.516l8.603 7.925h19.655c16.97 0 31.179-12.859 32.868-29.745l11.595-107.355c1.233-12.323-3.131-24.549-11.888-33.306z" fill="#736572"/><path d="m425.762 122.871 15.355 15.355c5.274 5.274 7.879 12.565 7.137 19.984l-11.597 115.952c-.847 8.476-7.919 14.871-16.435 14.871h-36.169c0 9.121 7.395 16.516 16.516 16.516h19.655c16.97 0 31.179-12.859 32.868-29.745l11.595-115.947c1.232-12.323-3.132-24.548-11.889-33.305l-15.361-15.361c-7.743-7.743-18.246-12.094-29.197-12.094h-57.22v16.516h57.218c6.621 0 12.839 2.581 17.524 7.258z" fill="#605360"/><path d="m119.795 99.097h-56.139c-13.907 0-21.588 16.138-12.818 26.931l85.473 105.198z" fill="#dad7da"/><path d="m294.203 319.664h-145.303l-12.589-5.858v-49.548h157.892z" fill="#dad7da"/><path d="m284.956 264.258v24.774c0 13.682-11.092 24.774-24.774 24.774h-123.871v33.032h181.677v-82.581h-33.032z" fill="#c8c4c8"/><path d="m169.343 512h-62.791c-10.304 0-18.093-9.332-16.25-19.471l27.026-148.645c1.428-7.853 8.268-13.562 16.25-13.562h49.366l12.544 87.73z" fill="#ebe9eb"/><path d="m336.97 343.884c-1.428-7.853-8.268-13.562-16.249-13.562h-49.366l-11.685 94.246 25.286 87.432h62.791c10.304 0 18.093-9.333 16.25-19.471z" fill="#c8c4c8"/><path d="m199.724 84.442-112.962 14.655 30.567 168.116c1.428 7.853 8.268 13.562 16.25 13.562h49.366z" fill="#ebe9eb"/><path d="m271.355 280.774h49.366c7.982 0 14.822-5.709 16.25-13.562l30.567-168.115h-140.388z" fill="#c8c4c8"/><path d="m271.355 330.323h-88.411l-13.601 181.677h115.613z" fill="#dad7da"/><path d="m233.156 49.548h-22.523l-123.869 49.549h82.579l13.601 181.677h88.411l13.601-181.677z" fill="#dad7da"/><path d="m233.156 49.548 18.017 49.549h116.365l-123.872-49.549z" fill="#c8c4c8"/></g><g/><g/><g/><g/><g/><g/><g/><g/><g/><g/><g/><g/><g/><g/><g/></svg>