<svg id="Capa_1" enable-background="new 0 0 512 512" viewBox="0 0 512 512" xmlns="http://www.w3.org/2000/svg"><g><g><path d="m48 257.414c-26.469 0-48-21.531-48-48s21.531-48 48-48 48 21.531 48 48-21.531 48-48 48zm0-80c-17.648 0-32 14.355-32 32s14.352 32 32 32 32-14.355 32-32-14.352-32-32-32z" fill="#fde8c5"/></g><path d="m212.655 129.414h-139.49c-4.848 0-8.581 4.277-7.926 9.081l18.988 139.243c.576 4.227 1.962 8.17 3.987 11.676l27.719 8.104h81.887l22.762-159.023c.655-4.803-3.079-9.081-7.927-9.081z" fill="#faf3da"/><path d="m246.835 129.414h-34.181l-18.044 132.324c-2.162 15.855-15.704 27.676-31.707 27.676h-74.69c5.577 9.623 15.999 16 27.72 16l53.817 13.606 62.25-13.606 22.762-166.919c.655-4.804-3.079-9.081-7.927-9.081z" fill="#fde8c5"/><path d="m168 105.414c-4.422 0-8-3.582-8-8 0-11.875-3.219-17.508-6.945-24.031-4.243-7.426-9.055-15.844-9.055-31.969 0-4.418 3.578-8 8-8s8 3.582 8 8c0 11.875 3.219 17.508 6.945 24.031 4.243 7.426 9.055 15.844 9.055 31.969 0 4.418-3.578 8-8 8z" fill="#fde8c5"/><path d="m132.172 105.414c-4.422 0-8-3.582-8-8 0-12.105-2.867-17.809-6.195-24.41-.688-1.383-1.383-2.766-2.055-4.191-1.875-4.004-.156-8.766 3.844-10.641 4.031-1.891 8.766-.152 10.641 3.844.609 1.297 1.234 2.543 1.867 3.793 3.703 7.359 7.898 15.699 7.898 31.605 0 4.418-3.578 8-8 8z" fill="#faf3da"/><path d="m202.602 105.414c-4.422 0-8-3.582-8-8 0-12.09-2.867-17.789-6.18-24.391-.703-1.387-1.398-2.777-2.07-4.219-1.875-4-.148-8.762 3.852-10.637 4-1.871 8.758-.145 10.633 3.855.609 1.301 1.242 2.559 1.875 3.812 3.703 7.355 7.891 15.691 7.891 31.578-.001 4.42-3.58 8.002-8.001 8.002z" fill="#faf3da"/><path d="m314.963 147.922c14.179 14.179 32.989 20.329 50.763 18.763 1.566-17.774-4.584-36.584-18.763-50.763-12.01-12.01-27.342-18.26-42.553-18.939-4.679-.209-8.595 3.707-8.386 8.386.679 15.211 6.929 30.542 18.939 42.553z" fill="#97da7c"/><path d="m354.824 172.708c0 8.837-7.163 16-16 16s-16-7.163-16-16 7.163-16 16-16c1.612 0 3.169.238 4.636.682z" fill="#c9aef1"/><path d="m377.878 152.192c-1.858-.571-3.832-.878-5.878-.878-8.923 0-16.475 5.847-19.051 13.916-1.984-3.692-5.399-6.592-9.489-7.84.452 1.479.775 3.102.775 4.729 0 8.836-7.163 16-16 16l10.588 10.588c6.602 0 12.267-4 14.712-9.708 3.013 7.23 10.143 12.314 18.465 12.314 11.046 0 16.247-8.954 16.247-20 0-8.999-10.369-19.121-10.369-19.121z" fill="#b796e7"/><path d="m377.878 152.192c.579 1.871.982 3.921.982 5.982 0 11.045-8.955 20-20 20l13.14 13.14c11.046 0 20-8.955 20-20 0-8.985-5.966-16.598-14.122-19.122z" fill="#9a82e8"/><path d="m439.997 177.414h-39.997l-48.893 11.724-47.107-11.724h-64c-8.836 0-16 7.164-16 16l16 16h-16c-8.836 0-16 7.164-16 16l32 16c-8.836 0-16 7.164-16 16l16 16h-16c-8.836 0-16 7.164-16 16l16 7.452h229.623z" fill="#ffd08c"/><path d="m472 241.414h-16c8.836 0 16-7.164 16-16 0-8.837-7.164-16-16-16h16c8.836 0 16-7.164 16-16 0-8.837-7.164-16-16-16h-32.003c-.018 8.822-7.171 15.968-15.997 15.968h-199.997c0 .011-.003.021-.003.032 0 8.836 7.164 16 16 16h183.997c-.018 8.822-7.171 15.968-15.997 15.968h-199.997c0 .011-.003.021-.003.032 0 8.836 7.164 16 16 16h215.997c-.018 8.822-7.171 15.968-15.997 15.968h-199.997c0 .011-.003.021-.003.032 0 8.836 7.164 16 16 16h183.997c-.018 8.822-7.171 15.968-15.997 15.968h-199.997c0 .011-.003.021-.003.032 0 8.836 7.164 16 16 16h232c8.836 0 16-7.164 16-16 0-8.837-7.164-16-16-16h16c8.836 0 16-7.164 16-16 0-8.837-7.164-16-16-16z" fill="#fabd7f"/><g fill="#c9aef1"><path d="m315.742 377.383c-.023 0-.055 0-.078 0-4.414.043-7.961 3.66-7.922 8.078l.586 60.574-44.914-65.039c-1.992-2.887-5.625-4.129-8.969-3.09-3.344 1.043-5.617 4.137-5.617 7.637v85.043c0 4.418 3.578 8 8 8s8-3.582 8-8v-59.383l42.93 62.156c2.453 3.547 6.539 5.078 10.328 3.871 3.922-1.223 6.453-4.961 6.453-9.594l-.797-82.332c-.039-4.39-3.617-7.921-8-7.921z"/><path d="m504 377.383c-4.422 0-8 3.582-8 8v33.141h-42.961v-33.141c0-4.418-3.578-8-8-8s-8 3.582-8 8v85.203c0 4.418 3.578 8 8 8s8-3.582 8-8v-36.062h42.961v36.062c0 4.418 3.578 8 8 8s8-3.582 8-8v-85.203c0-4.418-3.578-8-8-8z"/><path d="m54.381 421.927c3.682-4.691 5.97-10.525 5.97-16.938 0-15.223-12.383-27.605-27.602-27.605h-24.749c-4.422 0-8 3.582-8 8v85.203c0 2.129.852 4.168 2.359 5.668 1.492 1.496 3.523 2.332 5.641 2.332h.039s22.758-.102 29.031-.102c17.062 0 30.938-13.875 30.938-30.934 0-10.651-5.411-20.057-13.627-25.624zm-21.631-28.544c6.398 0 11.602 5.207 11.602 11.605s-5.203 11.605-11.602 11.605c-1.866 0-16.75.023-16.75.023v-23.234h16.75zm4.32 69.101c-3.844 0-13.859.039-21.07.066v-29.905c2.45-.01 21.07-.029 21.07-.029 8.234 0 14.938 6.699 14.938 14.934s-6.703 14.934-14.938 14.934z"/><path d="m408.594 453.422c-.82.98-1.711 1.895-2.648 2.73-4.797 4.27-10.875 6.434-18.062 6.434-19.078 0-34.602-15.523-34.602-34.602s15.523-34.602 34.602-34.602c6.938 0 13.625 2.043 19.344 5.906 3.648 2.473 8.648 1.504 11.102-2.148 2.477-3.66 1.516-8.633-2.148-11.109-8.367-5.656-18.156-8.648-28.297-8.648-27.898 0-50.602 22.699-50.602 50.602s22.703 50.602 50.602 50.602c11.07 0 21-3.625 28.711-10.488 1.523-1.359 2.945-2.828 4.266-4.402 2.836-3.387 2.391-8.43-.992-11.27-3.386-2.837-8.432-2.384-11.276.995z"/><path d="m224.664 377.383c-4.422 0-8 3.582-8 8v58.566c0 4.465-1.211 11.008-11.648 16.27-3.125 1.57-6.633 2.367-10.438 2.367-.008 0-.023 0-.039 0-4.273-.004-8-1.062-11.406-3.234-6.867-4.391-9.672-8.832-9.672-15.34v-58.629c0-4.418-3.578-8-8-8s-8 3.582-8 8v58.629c0 12.062 5.578 21.492 17.062 28.824 5.969 3.809 12.695 5.742 20 5.75h.055c6.328 0 12.258-1.371 17.633-4.074 16.906-8.52 20.453-21.324 20.453-30.562v-58.566c0-4.419-3.578-8.001-8-8.001z"/><path d="m143.305 407.527c0-16.621-14.086-30.145-31.398-30.145h-22.641c-2.125 0-4.164.848-5.664 2.352-1.493 1.501-2.331 3.529-2.331 5.648h-.037v85.203c0 4.418 3.578 8 8 8s8-3.582 8-8v-31.145l32.062 36.43c1.586 1.797 3.789 2.715 6.008 2.715 1.883 0 3.766-.656 5.289-1.996 3.312-2.918 3.633-7.973.719-11.289l-24.72-28.087c15.081-2.192 26.713-14.605 26.713-29.686zm-31.399 14.141c-2.52 0-9.319.016-14.672.035v-28.32h14.672c8.344 0 15.398 6.477 15.398 14.145.001 7.663-7.054 14.14-15.398 14.14z"/></g><path d="m304 177.382v48c0 8.836 7.164 16 16 16s16-7.164 16-16 7.164-16 16-16 16 7.164 16 16v32l24.265 5.602v-72l-8.265-13.602z" fill="#ffefab"/><path d="m16 329.414h480v-16c0-4.418-3.582-8-8-8h-472c-4.418 0-8 3.582-8 8v8c0 4.418 3.582 8 8 8z" fill="#f3a873"/><path d="m496 305.414h-8c0 8.837-7.163 16-16 16h-464v8c0 4.418 3.582 8 8 8h480c4.418 0 8-3.582 8-8v-16c0-4.418-3.582-8-8-8z" fill="#e2996c"/><path d="m384 177.382v64.032c0 8.837-7.163 15.968-16 15.968v.032c0 8.836 7.164 16 16 16v-.032c8.836 0 16-7.164 16-16v-80z" fill="#ffdf9b"/></g><g/><g/><g/><g/><g/><g/><g/><g/><g/><g/><g/><g/><g/><g/><g/></svg>