<svg id="Capa_1" enable-background="new 0 0 512 512" viewBox="0 0 512 512" xmlns="http://www.w3.org/2000/svg"><g><path d="m353.618.224-258.986 60.938c-2.336.55-4.421 1.621-6.236 3.009l275.415 33.173v-89.047c0-5.348-4.987-9.298-10.193-8.073z" fill="#ffd08c"/><path d="m413.569 64.171h-325.173c-4.006 3.064-6.551 7.839-6.551 13.136v418.107c0 4.58 3.713 8.293 8.293 8.293h331.725v-431.243c0-4.58-3.713-8.293-8.294-8.293z" fill="#faf3da"/><g fill="#f3a873"><path d="m309.257 375.961c-.024 0-.057 0-.081 0-4.576.045-8.253 3.794-8.212 8.374l.283 29.297-23.47-33.991c-2.065-2.992-5.831-4.284-9.297-3.203s-5.823 4.288-5.823 7.917v55.302c0 4.58 3.709 8.293 8.293 8.293s8.293-3.713 8.293-8.293v-28.697l22.263 32.241c2.373 3.45 6.39 4.904 10.18 3.734 3.879-1.203 6.382-4.794 6.382-9.224l-.518-53.537c-.04-4.552-3.749-8.213-8.293-8.213z"/><path d="m182.82 375.973c-4.325-.166-8.269 2.466-9.694 6.872l-8.633 30.297-9.038-30.65c-1.369-4.11-5.272-6.791-9.678-6.511-4.333.288-7.929 3.462-8.771 7.815l-9.735 53.958c-.81 4.507 2.187 8.824 6.69 9.633 4.584.846 8.82-2.183 9.638-6.686l4.454-24.705 7.524 25.483c1.32 3.879 4.948 6.471 9.038 6.471h.065c4.122-.028 7.742-2.677 9.103-6.884l7.159-25.134 4.746 24.851c.858 4.499 5.199 7.418 9.702 6.592 4.503-.863 7.451-5.203 6.592-9.702l-10.334-54.092c-.875-4.239-4.504-7.369-8.828-7.608z"/><path d="m243.552 392.798c4.584 0 8.293-3.713 8.293-8.293s-3.709-8.293-8.293-8.293h-23.138c-4.584 0-8.293 3.713-8.293 8.293v54.901c0 4.58 3.709 8.293 8.293 8.293h23.138c4.584 0 8.293-3.713 8.293-8.293s-3.709-8.293-8.293-8.293h-14.845v-10.865h13.136c4.584 0 8.293-3.713 8.293-8.293s-3.709-8.293-8.293-8.293h-13.136v-10.865h14.845z"/><path d="m376.364 375.961c-4.584 0-8.293 3.713-8.293 8.293v38.084c0 2.401-.697 5.212-5.888 7.823-1.62.814-3.037 1.219-5.41 1.203-2.179-.004-4.057-.53-5.75-1.616-4.057-2.588-4.867-4.738-4.867-7.37v-38.125c0-4.58-3.709-8.293-8.293-8.293s-8.293 3.713-8.293 8.293v38.125c0 8.856 4.211 16.036 12.513 21.344 4.373 2.802 9.314 4.223 14.667 4.228h.065c4.6 0 8.917-1.004 12.828-2.98 9.686-4.871 15.015-12.909 15.015-22.632v-38.084c-.001-4.58-3.71-8.293-8.294-8.293z"/></g><path d="m421.863 64.171h-8.293v406.363c0 13.741-11.139 24.879-24.879 24.879h-306.847v8.293c0 4.58 3.713 8.293 8.293 8.293h331.725c4.58 0 8.293-3.713 8.293-8.293v-431.242c.001-4.58-3.712-8.293-8.292-8.293z" fill="#fde8c5"/><path d="m322.345 149.566-9.655 1.915-6.931-4.383c-16.27 0-30.941 6.72-41.466 17.514l-8.293 25.665-8.293-25.67c-10.525-10.791-25.197-17.505-41.466-17.505l-8.23 6.415-8.356-3.981c-12.227 3.756-22.428 11.619-29.626 21.806l2.715 8.564-11.057 8.022c-2.913 8.782-3.997 18.348-2.879 28.03.534 4.622 1.399 9.104 2.558 13.443l7.577 8.007-1.493 8.58c7.718 16.441 19.476 30.45 32.204 42.04l15.279 1.018 4.76 14.986c9.347 6.571 18.379 11.876 25.95 15.909l19.625 2.499c22.462-10.205 84.71-43.386 95.403-106.481 7.711-45.501-28.326-66.393-28.326-66.393z" fill="#fabd7f"/><path d="m360.315 187.928-8.345-16.586c-7.197-10.189-17.389-18.03-29.625-21.775 12.854 13.885 19.591 33.689 17.245 53.998-7.53 65.177-77.569 103.978-103.946 116.377 4.626 2.461 8.783 4.476 12.063 5.998h16.586c8.608-3.99 22.903-11.284 38.008-21.906l5.502-14.497 14.542-1.493c12.727-11.59 24.495-25.612 32.209-42.053l-2.281-8.58 8.364-8.007c1.161-4.343 2.021-8.818 2.555-13.443 1.118-9.688.034-19.254-2.877-28.033z" fill="#f3a873"/><path d="m339.632 187.928 7.293-8.239-11.24-8.347h-13.34v-21.775c-3.697-1.135-7.569-1.918-11.611-2.256-1.685-.141-3.32-.213-4.975-.212v24.243h-41.466v-6.73c-3.128 3.22-5.969 6.881-8.293 10.754-2.324-3.873-5.165-7.538-8.293-10.758v6.734h-41.466v-24.239c-1.655-.001-3.29.067-4.975.207-4.042.338-7.914 1.091-11.611 2.226v21.806h-29.626c-3.554 5.029-6.361 10.623-8.342 16.586h37.967v41.474h-38.289c1.548 5.786 3.601 11.302 6.084 16.586h32.204v42.04c6.568 5.988 13.365 11.313 20.039 16.004h38.013v9.849l9.3 2.26 7.287-11.961.206-.148 23.132-8.361.062-8.225h-23.4v-41.458h41.466v24.837l9.184 1.389 7.402-22.298v-3.927h2.447l13.146-7.603-4.903-8.984h-10.69v-41.474zm-91.925 99.518h-41.466v-41.458h41.466zm0-58.044h-41.466v-41.474h41.466zm58.052 0h-41.466v-41.474h41.466z" fill="#ffd08c"/><path d="m215.794 148.009c3.778 3.701 7.126 7.842 9.864 12.404 1.608-2.679 3.451-5.19 5.431-7.587-4.779-2.283-9.901-3.917-15.295-4.817z" fill="#fabd7f"/><g><path d="m305.759 270.825v16.621h-18.065c-7.815 6.364-15.729 11.873-23.194 16.586h37.802c6.673-4.691 13.475-10.002 20.044-15.99v-38.126c-4.901 7.555-10.531 14.504-16.587 20.909z" fill="#fabd7f"/></g><path d="m247.707 313.881v12.058c.467.216 1.029.489 1.461.685 4.37 1.985 9.294 1.985 13.664 0 .432-.196.995-.469 1.461-.685v-21.759c-5.919 3.728-11.559 7.013-16.586 9.701z" fill="#fabd7f"/><path d="m351.97 171.342h-16.284c1.985 5.287 3.307 10.839 3.947 16.586h20.683c-1.982-5.963-4.793-11.557-8.346-16.586z" fill="#fabd7f"/><path d="m324.792 245.988h29.762c2.483-5.284 4.535-10.8 6.083-16.586h-27.602c-2.303 5.788-5.09 11.329-8.243 16.586z" fill="#fabd7f"/></g><g/><g/><g/><g/><g/><g/><g/><g/><g/><g/><g/><g/><g/><g/><g/></svg>