<?xml version="1.0" encoding="UTF-8"?>
<svg id="Capa_1" data-name="Capa 1" xmlns="http://www.w3.org/2000/svg" viewBox="0 0 358.53 512">
  <defs>
    <style>
      .cls-1 {
        fill: #fef0ae;
      }

      .cls-2 {
        fill: #b57f5f;
      }

      .cls-3 {
        fill: #9f6e50;
      }

      .cls-4 {
        fill: #b3dafe;
      }

      .cls-5 {
        fill: #d8ecfe;
      }

      .cls-6 {
        fill: #e2a975;
      }
    </style>
  </defs>
  <path class="cls-5" d="m332.75,129.36l-4.82,66.58-13.88,192.11-6.33,87.48c-1.49,20.56-17.94,36.47-37.74,36.47H88.55c-19.8,0-36.26-15.9-37.74-36.47l-6.33-87.48-13.88-192.11-4.82-66.58,153.49-16.83,153.48,16.83Z"/>
  <path class="cls-4" d="m332.75,129.36l-4.82,66.58-13.87,192.11-6.33,87.48c-1.49,20.57-17.95,36.47-37.74,36.47h-25.78c19.8,0,36.25-15.9,37.74-36.47l6.33-87.48,13.88-192.11,4.82-66.58,14.58-6.71,11.2,6.71Z"/>
  <path class="cls-2" d="m345.46,66.26c-3.78,0-7.16-2.35-8.47-5.89l-13.06-35.18c-1.83-4.92-6.37-8.3-11.61-8.64L54.06.03c-5.86-.38-11.26,3.14-13.31,8.64l-19.2,51.71c-1.32,3.54-4.69,5.89-8.47,5.89-7.22,0-13.08,5.85-13.08,13.08v36.7c0,7.35,5.96,13.31,13.31,13.31h331.91c7.35,0,13.31-5.96,13.31-13.31v-36.7c0-7.22-5.85-13.08-13.08-13.08h0Z"/>
  <path class="cls-3" d="m358.53,79.34v36.71c0,7.35-5.96,13.32-13.32,13.32h-25.78c7.35,0,13.32-5.96,13.32-13.32v-36.71c0-7.22-5.86-13.08-13.08-13.08-3.77,0-7.16-2.34-8.47-5.89l-13.07-35.18c-1.83-4.92-8.32-10.08-13.56-10.41l27.73,1.77c5.24.33,9.79,3.71,11.61,8.63l13.07,35.18c1.31,3.55,4.69,5.89,8.47,5.89,7.22,0,13.08,5.86,13.08,13.08Z"/>
  <path class="cls-6" d="m338.19,204.43l-12.39,176.24c-.29,4.16-3.75,7.38-7.91,7.38H40.64c-4.17,0-7.62-3.22-7.91-7.38l-12.39-176.24c-.32-4.59,3.31-8.49,7.91-8.49h302.02c4.6,0,8.24,3.9,7.91,8.49Z"/>
  <path class="cls-2" d="m338.19,204.43l-12.39,176.25c-.29,4.16-3.74,7.37-7.91,7.37h-25.44c4.17,0,7.62-3.22,7.91-7.37l12.39-176.25c.32-4.59-3.31-8.49-7.91-8.49h25.44c4.6,0,8.23,3.9,7.91,8.49h0Z"/>
  <path class="cls-2" d="m219.51,280.45v23.09c0,18.66-12.69,34.35-29.91,38.9l-8.27-2.43-10.84,2.82c-18.01-4-31.47-20.07-31.47-39.29v-23.09c0-18.66,12.69-34.35,29.91-38.9l7.84,1.86,10.19-2.47c8.02,1.56,15.2,5.5,20.76,11.06,7.28,7.28,11.79,17.34,11.79,28.46h0Z"/>
  <path class="cls-3" d="m219.51,280.45v23.09c0,18.67-12.71,34.36-29.94,38.91l-8.24-2.44-10.84,2.82c-1.4-.31-2.77-.69-4.12-1.14,15.9-5.37,27.35-20.42,27.35-38.14v-23.09c0-11.12-4.51-21.17-11.79-28.46-4.33-4.33-9.63-7.67-15.56-9.68.84-.28,1.69-.54,2.56-.77l7.84,1.86,10.17-2.47c8.03,1.55,15.21,5.5,20.78,11.06,7.28,7.28,11.79,17.34,11.79,28.46h0Z"/>
  <path class="cls-1" d="m189.6,342.45c-3.29.88-6.76,1.34-10.33,1.34-3.01,0-5.95-.33-8.78-.96.68-.83,20.03-25.19,2.83-45.89-17.14-20.64-11.83-42.59-4.38-55.4,3.29-.88,6.76-1.34,10.33-1.34,2.63,0,5.2.25,7.69.73h0c-.74.91-18.93,25.43-1.74,46.11,17.14,20.63,11.83,42.59,4.38,55.4Z"/>
</svg>