<?xml version="1.0" encoding="UTF-8"?><svg id="Layer_1" xmlns="http://www.w3.org/2000/svg" viewBox="0 0 512 379.6"><defs><style>.cls-1{fill:#fff;}.cls-2{fill:#ecf0f1;}.cls-3{fill:#fdd7ad;}.cls-4{fill:#a56a43;}.cls-5{fill:#bdc3c7;}.cls-6{fill:#d1d4d1;}.cls-7{fill:#95a5a5;}</style></defs><g id="Page-1"><g id="_018---Latte-Art"><path id="Shape" class="cls-7" d="m376.2,305.5c-4,0-7.5-2.7-8.5-6.6s.7-8,4.2-9.9c9.5-5.2,19.7-9,30.3-11.2,3.4-.8,7.1-1.6,10.8-2.4,33.5-7.2,75.3-16.1,80.7-55.9.4-2.9.6-5.9.6-8.9v-38.7c0-4.9,4-8.8,8.8-8.8s8.8,4,8.8,8.8v38.7c0,3.7-.3,7.5-.8,11.2-7.1,52.2-59.7,63.5-94.6,70.9-3.7.8-7.2,1.5-10.5,2.3-9,1.9-17.6,5.1-25.6,9.4-1.3.7-2.8,1.1-4.3,1.1h0Z"/><path id="Shape-2" class="cls-6" d="m512,169.9v40.7c0-46.3-49.3-52-89-38.5h-.4c-16.6-13.2-16.3-11.1-16.6-22.1l17.6-18.9c.1,0,.2,0,.4,0,39.5-13.1,88-7,88,38.8Z"/><path id="Shape-3" class="cls-5" d="m423.7,134.5c.3,10.9,0,23.7-1,37.6-2.2,44-15.1,86.8-37.7,124.6-30.1,46.6-82.5,82.9-173.1,82.9C17,379.6-1.7,211.2.1,134.5h423.5Z"/><path id="Shape-4" class="cls-2" d="m423.7,132.4c0,.3,0,.7,0,1,0,.2,0,.3,0,.4,0,.2,0,.5,0,.7-1.8,72.1-96,130.3-211.8,130.3S1.9,206.7.1,134.5c0-.2,0-.5,0-.7,0-.2,0-.3,0-.4,0-.3,0-.6,0-1C0,59.3,94.9,0,211.9,0s211.9,59.3,211.9,132.4Z"/><ellipse id="Oval" class="cls-4" cx="211.9" cy="132.4" rx="176.6" ry="97.1"/><path id="Shape-5" class="cls-5" d="m211.9,238.3c-103.9,0-185.4-46.5-185.4-105.9S107.9,26.5,211.9,26.5s185.4,46.5,185.4,105.9-81.4,105.9-185.4,105.9Zm0-194.2c-90.9,0-167.7,40.4-167.7,88.3s76.8,88.3,167.7,88.3,167.7-40.4,167.7-88.3-76.8-88.3-167.7-88.3Z"/><path id="Shape-6" class="cls-1" d="m211.9,353.1c-57.1,0-101.6-15.9-132.2-47.2-3.4-3.5-3.3-9.1.1-12.5,3.5-3.4,9.1-3.3,12.5.1,27.2,27.8,67.4,41.9,119.6,41.9s8.8,4,8.8,8.8-4,8.8-8.8,8.8h0Z"/><path id="Shape-7" class="cls-3" d="m309,132.4c-4.9,0-8.8,4-8.8,8.8,0,22.4-35.6,41.6-79.4,43.9v-17.8c27.9-2.1,46.7-13.3,51.5-21.6,2.3-4,.9-9.2-3-11.5-4.1-2.5-9.4-1.3-12.2,2.6-10.3,8.2-23.1,12.8-36.3,13v-19.7c35-11.3,53-25.3,53-41.7s-15.2-26.5-35.3-26.5c-9.2-.2-18.3,2-26.5,6.2-8.2-4.3-17.3-6.4-26.5-6.2-20.1,0-35.3,11.4-35.3,26.5s18,30.4,53,41.7v19.7c-13.2-.2-25.9-4.7-36.2-12.8-1.5-2.8-4.5-4.6-7.7-4.6-3.2,0-6.2,1.7-7.8,4.5s-1.5,6.2.2,9c4.8,8.3,23.6,19.6,51.5,21.6v17.8c-43.9-2.3-79.4-21.5-79.4-43.9s-4-8.8-8.8-8.8-8.8,4-8.8,8.8c0,34.6,46.5,61.8,105.9,61.8s105.9-27.1,105.9-61.8-4-8.8-8.8-8.8Z"/></g></g></svg>