<?xml version="1.0" encoding="UTF-8"?><svg id="Layer_1" xmlns="http://www.w3.org/2000/svg" viewBox="0 0 639.4 595.8"><defs><style>.cls-1{fill:#f72127;}</style></defs><path class="cls-1" d="M204,177.9c14.1,0,25.5-11.4,25.5-25.5s-11.4-25.5-25.5-25.5-25.5,11.4-25.5,25.5,11.4,25.5,25.5,25.5Zm0-32.3c3.7,0,6.8,3,6.8,6.8s-3,6.8-6.8,6.8-6.8-3-6.8-6.8,3.1-6.8,6.8-6.8Z"/><path class="cls-1" d="M435.4,177.9c14.1,0,25.5-11.4,25.5-25.5s-11.4-25.5-25.5-25.5-25.5,11.4-25.5,25.5,11.4,25.5,25.5,25.5Zm0-32.3c3.7,0,6.8,3,6.8,6.8s-3,6.8-6.8,6.8-6.8-3-6.8-6.8,3-6.8,6.8-6.8Z"/><path class="cls-1" d="M319.7,177.9c14.1,0,25.5-11.4,25.5-25.5s-11.4-25.5-25.5-25.5-25.5,11.4-25.5,25.5,11.4,25.5,25.5,25.5Zm0-32.3c3.7,0,6.8,3,6.8,6.8s-3,6.8-6.8,6.8-6.8-3-6.8-6.8,3-6.8,6.8-6.8Z"/><path class="cls-1" d="M419.2,274c5.2,0,9.4-4.2,9.4-9.4v-18.8c0-5.2-4.2-9.4-9.4-9.4s-9.4,4.2-9.4,9.4v18.8c0,5.2,4.2,9.4,9.4,9.4Z"/><path class="cls-1" d="M436.6,296.2h-27.4c-5.2,0-9.4,4.2-9.4,9.4s4.2,9.4,9.4,9.4h27.4c5.2,0,9.4-4.2,9.4-9.4s-4.2-9.4-9.4-9.4Z"/><path class="cls-1" d="M230.1,315c5.2,0,9.4-4.2,9.4-9.4s-4.2-9.4-9.4-9.4h-27.3c-5.2,0-9.4,4.2-9.4,9.4s4.2,9.4,9.4,9.4h27.3Z"/><path class="cls-1" d="M627.7,10.1c-6.9-6.5-15.9-10.1-25.4-10.1s-23.6,6-30.6,16l-7.6,10.9c-16.9,24.4-34.4,49.6-51.1,74.9-1.2,1.9-2.5,3.8-3.8,5.8C466.4,44.7,395.6,7.2,319.7,7.2s-58.9,5.7-86.3,16.9c-4.8,2-7.1,7.4-5.1,12.2,2,4.8,7.4,7.1,12.2,5.1,25.2-10.3,51.9-15.5,79.3-15.5,63.8,0,123.6,28.8,163.3,77.9H156.4c4.6-5.7,9.5-11.1,14.7-16.3,10.9-10.9,22.9-20.6,35.9-28.8,4.4-2.8,5.7-8.6,2.9-12.9s-8.6-5.6-12.9-2.9c-14.1,9-27.3,19.5-39.1,31.4-10.2,10.2-19.5,21.5-27.6,33.4-1.3-2-2.6-3.9-3.8-5.8C109.7,76.6,67.7,16,67.7,16,54.9-2.4,28-5.2,11.7,10.1-2.1,23.1-3.9,44.3,7.5,59.5c4.4,5.8,9.4,12.7,14.8,20.4-10,26.8-9.9,56.3-.2,82.7-10.6,26.6-8.4,56.1,5.2,80.5-4.4,43.9,13.1,86.6,47.3,114.7l22.4,18.4c3.7,21.8,5.9,41.7,7.2,56.4,.8,9.4,8.6,16.5,18.1,16.5s9.8-2.1,13.3-5.8c6.1-6.5,10.5-12.7,13.8-19.8,12.8,14.5,29.5,30.9,49.9,45.5-15.7,25.8-32.3,65.3-32.3,117.4s4.2,9.4,9.4,9.4H463c5.2,0,9.4-4.2,9.4-9.4,0-14.1-1.2-28.1-3.7-41.6-.9-5.1-5.8-8.5-10.9-7.6-5.1,.9-8.5,5.8-7.6,10.9,1.7,9.5,2.8,19.2,3.2,29h-39.8v-46.9c0-5.2-4.2-9.4-9.4-9.4s-9.4,4.2-9.4,9.4v46.9H244.5v-46.9c0-5.2-4.2-9.4-9.4-9.4s-9.4,4.2-9.4,9.4v46.9h-39.8c1.8-42.8,15.6-75.6,28.9-97.7,19.8,12.1,40.3,20.7,61.2,25.7,1.6,.4,3.2,.8,4.8,1.1-.3,2.4-.5,4.8-.5,7.3,0,23.5,14,44.6,35.7,53.6,2.2,.9,4.9,1,7.2,0,21.7-9.1,35.7-30.1,35.7-53.6s-.2-4.7-.4-7.1c22.7-4.7,44.8-13.5,66.3-26.5,6.4,10.6,11.8,22,16.1,33.8,1.8,4.9,7.2,7.3,12,5.6,4.9-1.8,7.3-7.2,5.6-12-4.9-13.2-11-25.9-18.1-37.7,20.4-14.5,37.1-30.8,49.9-45.2,3.2,6.8,7.5,12.7,13.4,18.9,3.5,3.8,8.2,5.8,13.3,5.8,9.5,0,17.2-7.1,18.1-16.5,1.3-14.7,3.5-34.7,7.2-56.4l22.4-18.4c34.2-28.1,51.8-70.8,47.3-114.7,13.6-24.4,15.8-53.9,5.2-80.5,9.7-26.5,9.9-56-.2-82.7,5.4-7.6,10.4-14.5,14.8-20.4,11.4-15.1,9.6-36.4-4.2-49.4Zm-146.9,302.5c-9.6,9.4-20.7,17.4-32.6,23.7-9.3,4.9-19.2,8.8-29.5,11.1-5.2-15-15.4-28.3-30.3-39.2-10.7-7.8-21.6-12.7-28.4-15.2v-26.8c0-35.2,28.1-63.9,62.7-64h.2c15.8,0,30.6,5.8,42.2,16.3,1.7,1.5,5.1,5.2,5.2,5.4,1.2,9.5,3.2,18.7,5.2,27.6,2.9,13,5.7,25.4,5.7,38.3s0,15.4,0,22.5c-.2,.2-.3,.3-.5,.5Zm-263.1,33.7c-11.8-3.2-23-8.3-33.4-14.8-7.1-4.4-20.3-15.1-20.4-15.2,10.5-7,22.6-17,33.7-30.6,5.9,2.2,12.3,3.4,18.9,3.4,30,0,54.5-24.4,54.5-54.5v-1.1c5.5,9.5,8.4,20.3,8.4,31.5v27.8c-6.6,2.5-17,7.1-27.4,14.5-15.4,10.9-26,24.4-31.3,39.6-1-.2-2-.5-3-.8Zm1.7-144.1c11.7,.5,23.2,4.4,32.9,11.1v21.3c0,19.7-16,35.8-35.8,35.8s-35.8-16-35.8-35.8v-21.3s0,0,.1,0c11.2-7.7,24.9-11.6,38.5-11Zm-61.2,87.4c0-12.9,2.8-25.2,5.7-38.3,.1-.5,.2-1,.4-1.6,3,10.4,9,19.5,17,26.3-7.6,8.9-15.7,15.9-23.1,21.4v-7.8Zm77.3,81.5c0-28.4,22.8-49,47.2-59.3,.2,0,.4-.2,.6-.3,3.9,5.5,10.4,8.9,17.1,8.9h38.8c6.6,0,13.2-3.4,17.1-8.9,14,5.8,41.4,20.5,46.8,49.4,.6,3.4,.9,6.8,.9,10.2v20.4c-16.3-2.4-31-12.1-40.3-26.8-9.7-15.4-24.9-23.5-43.9-23.5s-34.2,8.1-43.9,23.5c-9.3,14.7-24,24.4-40.3,26.8v-20.4ZM496.6,122.5c.5,.8,1,1.6,1.5,2.4-3.2,5.4-11.5,20.7-12.5,22.7-7.7,15.7-13.8,32.6-15.6,50.8-.5-.4-1-.7-1.5-1-13.3-9-29.5-13.9-45.6-13.9h-.3c-26.6,.1-50.3,13.2-65.2,33.4-10.5,14.2-16.2,31.7-16.2,49.3v33.5c0,1.2-1,2.1-2.2,2.1h-38.7c-1.2,0-2.2-1-2.2-2.2v-34.5c0-21.6-8.7-42.5-23.9-57.8-23-23-58.7-30.2-88.8-17.8-5.6,2.3-11,5.2-15.9,8.7,0,0-.1,0-.2,.1-1.8-18.1-7.9-35.1-15.6-50.8-3.8-7.8-8-15.3-12.5-22.7,.5-.8,1-1.6,1.5-2.4H496.6ZM93,212.8c2.3,6.3,2.8,13.9,2.3,22.2-.1-.1-.2-.3-.4-.4-7.2-8.5-14.2-17.1-21-25.9-10.5-13.5-22.1-27-29.8-42.3-10.3-20.6-13.2-44.2-8.2-66.6,18.3,27.8,38.8,62.8,51.7,97.4,.1,.4,3.6,10.9,5.4,15.7Zm-52-16.7c16.1,22,33,43.4,51.1,63.8,0,0,.1,.2,.2,.2-.1,.7-3.1,21.4-3.5,25.4l-34.5-37.1c-3.5-3.7-6.5-7.8-9.1-12.1-9-14.7-12.6-31.9-10.4-48.8,0,0,0,.1,.1,.2,.7,1.1,4.9,6.9,6,8.4Zm45.7,147.2c-23.6-19.4-37.9-46.8-40.7-76.4l20.7,22.3,20.6,22.2c0,2.8,.1,5.7,.3,8.6,.5,9.2,1.9,18.3,3.9,27.2l-4.9-4Zm36.2,86.2c-1.4-15.7-3.8-36.9-7.9-60,0,0,0-.1,0-.2-4-22.7-9.6-44.8-8.6-68.1,1.2-28.9,13-60.1,6-88.8-3.2-13.1-8.4-25.7-13.8-38.1C76.9,124.1,43,75.5,22.4,48.2c-5.7-7.5-4.7-18,2.1-24.5,8.1-7.6,21.4-6.2,27.8,2.9,0,0,41.9,60.4,58.5,85.5,11,16.6,21.1,32.6,28.4,48.5,7.8,16.9,15.3,39.5,11.5,58.4-4.6,22.9-11.3,47.2-11.3,70.6s-.2,39.2-.6,58.8c-.4,17.9,.9,36.9-2.5,54.5-2.3,12.2-6.4,18.8-13.5,26.6Zm196.8,118.6c-12.6-6.8-20.6-20-20.6-34.6s0-2.9,.2-4.3c7,.8,14,1.2,21,1.2s13.2-.4,19.8-1c.1,1.4,.2,2.8,.2,4.2,0,14.6-8,27.8-20.6,34.6Zm164.4-145.2c-24,29.2-68.4,72.2-128.5,85,0,0-.2,0-.2,0-25.4,5.3-51.9,4.7-77-1.6,0,0,0,0-.1,0-57.3-14.6-99.4-56.2-122.7-84.6,2.2-15,2.6-35.6,2.7-65.6,.2,.2,12.2,9.1,18.3,12.7,12.5,7.5,26.1,13.2,40.3,16.6,0,0,0,0,.1,0,.2,0-.2,5.2-.2,5.7v30.4c0,5.2,4.2,9.4,9.4,9.4h1.1c26,0,50.1-13.5,64.4-36.1,6.3-10,15.5-14.8,28.1-14.8s21.8,4.8,28.1,14.8c14.3,22.6,38.4,36.1,64.4,36.1s10.5-3.4,10.5-9.4v-30.4c0-1.8,0-3.6-.2-5.4,0,0,1.1-.3,1.1-.3,24.8-5.8,44.5-18.1,57.7-28.4,0,3.2,0,6.3,0,9.3,.1,26.7,.7,43.6,2.8,56.6Zm68.7-59.6l-4.9,4c.1-.7,1.8-8.8,2.4-12.2,.8-5,1.3-10,1.5-15.1s.2-5.8,.3-8.6l41.4-44.5c-2.8,29.6-17.1,57-40.7,76.4Zm51.8-155.8c2.2,16.9-1.4,34.1-10.3,48.8-2.6,4.3-5.7,8.4-9.2,12.1l-34.5,37.1c-.4-4.1-1-8-1.5-11.9,0,0,0,0,0,0-.5-3.8-1.9-12.7-2-13.4,0,0,3.5-4,5.2-5.9,16.4-18.7,31.7-38.4,46.4-58.4,2-2.7,3.9-5.4,5.8-8.1,0,0,0-.1,.1-.2Zm-1.1-87.8c5,22.4,2.1,46.1-8.2,66.6-6.1,12.3-14.9,22.9-23.2,33.8-8.9,11.7-18.1,23.3-27.6,34.5-.1,.1-.2,.3-.3,.4-.5-8.3,0-16,2.3-22.2,1.9-5.2,3.4-10.5,5.4-15.7,12.9-34.5,33.4-69.6,51.7-97.4Zm13.5-51.5c-20.6,27.3-54.5,75.9-76.2,126.2-5.5,12.8-11.3,25.8-14.1,39.6-2.8,13.5-1.2,27.5,.7,41,3.3,23.5,7.6,47,5.2,70.8-1.5,14.8-5.6,29.1-8.2,43.7,0,0,0,0,0,.1-4,23-6.4,44.2-7.9,60-6.8-7.5-10.9-14-13.2-25.5-10.6-51.5,2.1-105.1-9.5-156.7-2.2-9.7-4.2-18.8-5.2-28.2-2.1-21.1,3.7-41.6,12.6-60.7,0,0,0,0,0,0,7.2-15.1,16.8-30.3,27.3-46.1,19-28.8,38.8-57.1,58.5-85.5,6.3-9.1,19.7-10.5,27.8-2.9,6.8,6.4,7.8,17,2.1,24.5Z"/></svg>