<?xml version="1.0" encoding="UTF-8"?><svg id="Layer_1" xmlns="http://www.w3.org/2000/svg" viewBox="0 0 618.5 639.4"><defs><style>.cls-1{fill:#f72127;}</style></defs><path class="cls-1" d="M264.3,107.1h-68.5c-5.2,0-9.4,4.2-9.4,9.4V447.9c0,5.2,4.2,9.4,9.4,9.4h68.5c5.2,0,9.4-4.2,9.4-9.4V116.4c0-5.2-4.2-9.4-9.4-9.4Zm-9.4,331.5h-49.7V125.8h49.7V438.6Z"/><path class="cls-1" d="M354.1,457.3h68.5c5.2,0,9.4-4.2,9.4-9.4V116.4c0-5.2-4.2-9.4-9.4-9.4h-68.5c-5.2,0-9.4,4.2-9.4,9.4V447.9c0,5.2,4.2,9.4,9.4,9.4Zm9.4-331.5h49.7V438.6h-49.7V125.8Z"/><path class="cls-1" d="M618.5,614.5v-37.5c0-13.7-11.2-24.9-24.9-24.9h-20.8c.5-2,.8-4,.8-6.2v-37.5c0-13.7-11.2-24.9-24.9-24.9h-19.6V24c0-13.2-10.8-24-24-24H232.4c-5.2,0-9.4,4.2-9.4,9.4s4.2,9.4,9.4,9.4H505.1c2.9,0,5.3,2.4,5.3,5.3V483.5h-33.4V90.7c0-15.7-12.8-28.5-28.5-28.5H170.1c-15.7,0-28.5,12.8-28.5,28.5V483.5h-33.4V24c0-2.9,2.4-5.3,5.3-5.3h81.5c5.2,0,9.4-4.2,9.4-9.4s-4.2-9.4-9.4-9.4H113.4c-13.2,0-24,10.8-24,24V483.5h-19.6c-13.7,0-24.9,11.2-24.9,24.9v37.5c0,2.1,.3,4.2,.8,6.2H24.9c-13.7,0-24.9,11.2-24.9,24.9v37.5c0,13.7,11.2,24.9,24.9,24.9H593.6c13.7,0,24.9-11.2,24.9-24.9ZM458.2,90.7V483.5h-139.6V80.9h129.8c5.4,0,9.8,4.4,9.8,9.8Zm-297.9,0c0-5.4,4.4-9.8,9.8-9.8h129.8V483.5H160.3V90.7Zm439.4,523.8c0,3.4-2.8,6.2-6.2,6.2H24.9c-3.4,0-6.2-2.8-6.2-6.2v-37.5c0-3.4,2.8-6.2,6.2-6.2H434.7c5.2,0,9.4-4.2,9.4-9.4s-4.2-9.4-9.4-9.4H69.8c-3.4,0-6.2-2.8-6.2-6.2v-37.5c0-3.4,2.8-6.2,6.2-6.2h478.9c3.4,0,6.2,2.8,6.2,6.2v37.5c0,3.4-2.8,6.2-6.2,6.2h-76.5c-5.2,0-9.4,4.2-9.4,9.4s4.2,9.4,9.4,9.4h121.4c3.4,0,6.2,2.8,6.2,6.2v37.5h0Z"/></svg>