<?xml version="1.0" encoding="utf-8"?>
<!-- Generator: Adobe Illustrator 28.1.0, SVG Export Plug-In . SVG Version: 6.00 Build 0)  -->
<svg version="1.1" id="Layer_1" xmlns="http://www.w3.org/2000/svg" xmlns:xlink="http://www.w3.org/1999/xlink" x="0px" y="0px"
	 viewBox="0 0 1366 768" style="enable-background:new 0 0 1366 768;" xml:space="preserve">
<style type="text/css">
	.st0{fill:#FFFFFF;}
</style>
<g>
	<path class="st0" d="M338.01,277.95c5.8-14.86,8.99-31.04,8.99-47.95c0-72.9-59.1-132-132-132S83,157.1,83,230
		c0,16.81,3.15,32.87,8.87,47.66C54.78,289.88,28,324.81,28,366c0,51.36,41.64,93,93,93c6.29,0,12.43-0.63,18.37-1.82l-45.12-45.12
		c-3.12-3.12-3.12-8.19,0-11.31s8.19-3.12,11.31,0l51.14,51.14c15.76-6.56,29.32-17.33,39.29-30.9V277c0-8.84,7.16-16,16-16
		s16,7.16,16,16v136.44c4.06,6.83,8.96,13.09,14.57,18.64l74.1-74.1c3.12-3.12,8.19-3.12,11.31,0s3.12,8.19,0,11.31l-73.07,73.07
		C269.97,452.85,288.26,459,308,459c51.36,0,93-41.64,93-93C401,325.14,374.65,290.44,338.01,277.95z"/>
	<path class="st0" d="M228,446.65v-33.21c-8.25-13.89-13-30.11-13-47.44c0-1.34,0.04-2.67,0.09-4c-0.03,0-0.06,0-0.09,0
		c-0.36,0-0.73-0.01-1.09-0.01c0.06,1.33,0.09,2.67,0.09,4.01c0,20.58-6.69,39.59-18,54.99v70.2l-39.29-39.29
		c-5.53,2.3-11.33,4.09-17.34,5.29l56.03,56.03c0.19,0.19,0.4,0.38,0.6,0.55V587c0,8.84,7.16,16,16,16s16-7.16,16-16V469.27
		l26.91-26.91c-4.41-3.07-8.54-6.51-12.35-10.28L228,446.65z"/>
</g>
<g>
	<path class="st0" d="M485.82,176.9H376.09v-39.61h267.1v39.61H532.93v321.17h-47.1V176.9z"/>
	<path class="st0" d="M657.64,319.81c0-30.51-0.54-56.74-2.14-80.83h41.22l1.61,50.85h2.14c11.78-34.79,40.15-56.74,71.73-56.74
		c5.35,0,9.1,0.54,13.38,1.61v44.43c-4.82-1.07-9.63-1.61-16.06-1.61c-33.19,0-56.74,25.16-63.16,60.49
		c-1.07,6.42-2.14,13.92-2.14,21.95v138.1h-46.57V319.81z"/>
	<path class="st0" d="M853.56,377.09c1.07,63.7,41.75,89.93,88.86,89.93c33.72,0,54.06-5.89,71.73-13.38l8.03,33.72
		c-16.59,7.49-44.96,16.06-86.18,16.06c-79.76,0-127.4-52.46-127.4-130.61c0-78.15,46.03-139.71,121.51-139.71
		c84.57,0,107.06,74.4,107.06,122.04c0,9.63-1.07,17.13-1.61,21.95H853.56z M991.66,343.37c0.54-29.98-12.31-76.54-65.3-76.54
		c-47.64,0-68.52,43.89-72.26,76.54H991.66z"/>
	<path class="st0" d="M1121.73,377.09c1.07,63.7,41.75,89.93,88.86,89.93c33.72,0,54.06-5.89,71.73-13.38l8.03,33.72
		c-16.59,7.49-44.96,16.06-86.18,16.06c-79.76,0-127.4-52.46-127.4-130.61c0-78.15,46.03-139.71,121.51-139.71
		c84.57,0,107.06,74.4,107.06,122.04c0,9.63-1.07,17.13-1.61,21.95H1121.73z M1259.83,343.37c0.54-29.98-12.31-76.54-65.3-76.54
		c-47.64,0-68.52,43.89-72.26,76.54H1259.83z"/>
</g>
<g>
	<path class="st0" d="M506.65,606.19h-21.48v-95.53h37.52c13.03,0,19.91,1.86,26.07,7.3c6.59,5.87,10.31,14.61,10.31,24.92
		c0,8.74-2.72,16.33-8.16,22.06c-5.73,6.02-13.03,8.74-24.06,8.74h-20.19V606.19z M523.55,555.35c8.45,0,13.61-5.01,13.61-13.18
		c0-8.31-5.16-13.18-13.61-13.18h-16.9v26.35H523.55z"/>
	<path class="st0" d="M591.44,542.89c5.73-5.44,11.17-7.73,18.33-7.73c7.02,0,13.32,2.58,17.76,7.45
		c4.44,4.87,6.16,10.74,6.16,21.05v42.54h-20.34v-38.81c0-6.44-0.57-9.02-2.29-11.46c-1.72-2.29-4.58-3.58-8.02-3.58
		c-3.44,0-6.73,1.29-8.88,3.44c-2.29,2.43-2.72,4.44-2.72,11.6v38.81H571.1v-95.53h20.34V542.89z"/>
	<path class="st0" d="M721.63,572.11c0,20.91-15.47,35.95-36.81,35.95c-21.48,0-36.66-15.04-36.66-36.52
		c0-21.34,15.18-36.38,36.66-36.38C706.73,535.16,721.63,550.05,721.63,572.11z M668.64,571.53c0,13.03,5.87,20.34,16.33,20.34
		c10.17,0,16.18-7.3,16.18-19.91c0-13.32-5.73-20.62-16.33-20.62C674.51,551.34,668.64,558.64,668.64,571.53z"/>
	<path class="st0" d="M770.9,552.2h-12.46v26.92c0,10.88,0.43,11.74,5.16,11.74h7.3v15.32h-12.46c-8.88,0-13.32-1.29-16.33-4.58
		c-3.15-3.44-4.01-7.16-4.01-17.9V552.2h-9.74v-14.32h9.74v-21.91h20.34v21.91h12.46V552.2z"/>
	<path class="st0" d="M852.54,572.11c0,20.91-15.47,35.95-36.81,35.95c-21.48,0-36.66-15.04-36.66-36.52
		c0-21.34,15.18-36.38,36.66-36.38C837.64,535.16,852.54,550.05,852.54,572.11z M799.55,571.53c0,13.03,5.87,20.34,16.33,20.34
		c10.17,0,16.18-7.3,16.18-19.91c0-13.32-5.73-20.62-16.33-20.62C805.42,551.34,799.55,558.64,799.55,571.53z"/>
	<path class="st0" d="M933.03,537.45v62.16c0,11.31-1.58,16.33-6.45,21.05c-6.3,6.16-15.75,9.31-27.64,9.31
		c-19.33,0-30.93-7.88-32.37-22.06h21.05c1.43,4.3,5.44,6.44,12.17,6.44c4.01,0,7.45-1,9.6-2.72c3.01-2.43,3.87-5.01,3.87-12.03
		v-4.58c-6.16,5.58-10.88,7.45-18.62,7.45c-18.19,0-31.22-13.89-31.22-33.37s13.18-33.94,30.65-33.94c9.02,0,15.47,3.44,20.19,10.74
		l-0.43-8.45H933.03z M882.76,568.81c0,10.17,6.16,17.19,15.32,17.19c9.45,0,15.33-6.73,15.33-17.47c0-10.17-6.16-16.9-15.33-16.9
		S882.76,558.5,882.76,568.81z"/>
	<path class="st0" d="M971.71,537.02l-0.57,12.32c4.01-11.17,9.17-14.32,23.92-14.18v19.19c-2.44-0.29-3.44-0.29-5.16-0.29
		c-7.02,0-12.75,3.15-15.04,8.31c-2,4.58-2.72,11.03-2.72,24.35v19.48H951.8v-69.17H971.71z"/>
	<path class="st0" d="M1005.94,558.79c1.29-15.9,11.17-23.63,30.65-23.63c10.46,0,18.48,2.44,23.92,7.16
		c5.01,4.44,6.88,10.03,6.88,20.19v31.79c0,7.45,0.29,8.45,2.58,11.89h-20.77c-0.86-2.43-0.86-2.86-1.58-5.44
		c-6.73,5.59-11.6,7.3-19.76,7.3c-15.32,0-25.49-8.59-25.49-21.63c0-13.03,8.16-19.76,27.5-22.92l11.03-1.86
		c4.58-0.72,6.16-1.86,6.16-4.73c0-3.87-4.01-6.3-10.6-6.3c-7.45,0-11.46,2.58-12.32,8.16H1005.94z M1047.61,573.25
		c-2.15,0.86-4.01,1.43-7.45,2.15l-7.3,1.58c-7.3,1.72-10.46,4.15-10.46,8.31c0,4.58,3.87,7.3,10.31,7.3
		c6.73,0,11.6-2.86,14.89-8.74V573.25z"/>
	<path class="st0" d="M1105.33,537.02l-0.57,8.16c5.87-7.3,10.88-10.03,19.48-10.03c18.19,0,30.51,14.61,30.51,36.24
		c0,22.06-12.17,36.66-30.36,36.66c-7.59,0-12.89-2.15-18.62-7.45v27.5h-20.34v-91.09H1105.33z M1105.05,571.53
		c0,12.32,5.73,20.05,14.9,20.05c8.88,0,14.75-7.73,14.75-19.76c0-12.46-5.58-20.19-14.89-20.19
		C1110.78,551.63,1105.05,559.36,1105.05,571.53z"/>
	<path class="st0" d="M1189.55,542.89c5.73-5.44,11.17-7.73,18.33-7.73c7.02,0,13.32,2.58,17.76,7.45
		c4.44,4.87,6.16,10.74,6.16,21.05v42.54h-20.34v-38.81c0-6.44-0.57-9.02-2.29-11.46c-1.72-2.29-4.58-3.58-8.02-3.58
		c-3.44,0-6.73,1.29-8.88,3.44c-2.29,2.43-2.72,4.44-2.72,11.6v38.81h-20.34v-95.53h20.34V542.89z"/>
	<path class="st0" d="M1309.72,537.02l-24.06,69.75c-3.87,11.31-6.16,15.32-9.74,17.9c-3.29,2.43-7.88,3.44-15.47,3.44h-11.89
		v-15.32h6.01c7.16,0,10.46-2.72,10.46-8.74c0-2.43-0.14-2.86-2.58-8.88l-22.77-58.15h21.77l10.17,31.65
		c2.01,6.45,2.01,6.59,3.58,12.32l0.86,2.72c0.86-4.58,2-9.31,3.58-15.47l9.02-31.22H1309.72z"/>
</g>
</svg>
